<svg width="674" height="344" viewBox="0 0 674 344" fill="none" xmlns="http://www.w3.org/2000/svg">
<g clip-path="url(#clip0_2695_2)">
<path d="M176.18 14.7897C176.18 14.7897 176.51 12.7697 178.69 10.9097C183.6 6.73973 193.7 0.119717 197.85 0.179717C199.67 0.199717 205.53 -0.200289 208.55 1.82971C210.29 2.99971 212.54 4.47972 213.58 6.08972C214.5 7.50972 215.76 10.9097 216.18 15.1597C216.46 18.0297 216.56 24.8097 216.59 29.8897C216.6 31.6597 217.86 34.1597 219.21 35.8497C220.56 37.5397 222.12 38.6997 221.48 39.9697C220.55 41.8397 216.37 45.2397 212.56 49.0697C209.96 51.6897 209.17 56.5597 207.14 56.9597C205.82 57.2197 206.46 54.3797 205.79 51.8397C205.1 49.2197 203.11 46.8997 202.01 46.8997C197.32 46.8997 195.42 51.8797 192.58 49.5297C190.94 48.1697 189.99 40.6497 188.34 40.2797C187.04 39.9897 185.86 40.9597 185.13 40.1597C184.1 39.0097 185.21 34.9197 185.03 33.0897C184.84 31.1597 183.14 24.4397 183.14 24.4397L180.54 24.2197C180.54 24.2197 176.75 21.7397 176.75 20.4797" fill="black"/>
<path d="M204.37 65.3492C204.37 65.3492 203.92 61.0191 203.84 60.4391C203.65 59.0891 202.71 55.1191 202.71 55.1191L193.83 62.9291L183.84 69.3792L197.72 68.4492C197.72 68.4492 204.38 67.4991 204.38 65.6591" fill="black"/>
<path d="M207.53 65.0207C207.53 65.0207 210.25 64.5907 211.08 64.2107C212.13 63.7307 213.96 62.1807 214.87 61.4407C217.16 59.5807 232.64 46.6707 232.64 46.6707L225.67 40.7207C225.67 40.7207 207.71 60.6907 207.71 65.0507" fill="black"/>
<path d="M163.26 19.3301C165.89 19.3301 171.02 20.5201 172.22 25.3201C172.93 28.1701 172.52 33.2301 171.16 36.3301C170.69 37.4001 172.75 39.1901 174 39.9601C175.47 40.8601 176.91 40.4201 177.34 41.3401C178 42.7501 176.97 43.4501 175.78 43.7801C174.59 44.1201 176.86 49.6601 176.86 49.6601C176.86 49.6601 177.95 53.6301 176.84 54.5201C173.79 56.9901 167.77 54.8201 166.3 60.7101C164.92 66.2701 165.78 76.7201 165.02 76.0401C164.87 75.9101 179.77 74.1901 194.32 74.1901C196.6 74.1901 206.14 75.7701 221.67 62.6401C231 54.7501 242.46 41.6401 250.62 32.3401C250.82 32.1101 251.19 31.2201 250.55 30.8201C249.73 30.3101 247.82 30.2801 247.78 29.8201C247.68 28.4601 250.36 27.4001 249.51 26.8601C248.11 25.9601 247.05 26.3301 247.22 25.6701C247.43 24.8501 248.31 24.7601 249.36 24.2601C249.85 24.0301 249.18 22.5501 249.74 22.2801C259.45 17.7401 265.1 24.7701 265.34 25.0001C265.87 25.5001 266.41 28.0701 266.08 31.7301C265.76 35.2601 266.11 34.4401 267.59 39.1101C268.65 42.4501 270.09 41.6101 269.54 44.5901C268.99 47.5701 264.33 48.7101 262.98 49.8901C262.21 50.5601 260.2 47.4601 257.46 43.9501C254.93 40.7101 255.17 35.4001 254.32 36.5501C248.91 43.9201 241.28 53.4201 233.11 63.7201C227.41 70.9101 221.46 75.5001 221.39 75.8101C220.54 79.5401 191.6 85.8501 171.08 89.8001C170.86 89.8401 171.08 91.2501 171.17 91.7201C171.3 92.3801 173.23 91.0501 175.73 90.5001C178.62 89.8601 183.77 90.6901 184.19 90.7701C186.59 91.2501 190.06 93.7701 191.99 96.7401C193.55 99.1501 193.79 102 193.99 103.17C194.11 103.91 193.51 110.3 191.98 111.4C191.48 111.76 187.69 125.5 188.08 135.92C188.53 148.01 192.81 157.52 192.41 156.82C190.7 153.81 207.75 179.97 205.94 179.39C205.67 179.3 218.84 190.85 225.91 208.36C231.33 221.78 238.79 228.97 238.79 247.19C238.79 252.98 227.03 262.92 212.14 273.19C210.81 274.1 209 300.89 209.45 318.02C209.61 324 209.14 330.95 210.18 331.15C212.3 331.54 217.89 334.95 219.42 335.77C222.06 337.19 221.48 338.39 221.48 338.39C221.48 338.39 202.18 342.69 200.24 333.51C196.3 314.82 193.89 319.07 193.89 319.07C193.89 319.07 191.11 339.02 191.11 333.41C191.11 329.07 190.08 314.18 189.95 310.18C189.77 304.68 199.51 302.32 199.51 297.07C199.51 287.48 199.54 281.51 199.19 281.73C193.33 285.46 187.37 289.08 181.74 292.42C179.53 293.73 180.42 311.27 176.2 323.4C175.8 324.56 176.51 328.07 176.31 331.29C176.12 334.51 175.03 337.44 175.03 337.44L164.14 337.41C164.14 337.41 160.35 334.01 152.31 338.13C150.7 338.96 150.12 338.75 148.22 338.82C145.05 338.94 140.41 338.89 137.43 338.67C130.4 338.15 125.05 337.47 125.33 334.98C125.72 331.54 140.71 330.52 147.66 325.22C155.92 318.91 153.87 315.89 155.4 310.97C156.65 306.95 158.31 305.84 157.83 306.1C153.85 308.29 151.47 309.56 151.47 309.56C151.47 309.56 110.66 320.01 87.5896 306.38C81.6096 302.85 76.4596 298.74 71.9696 293.66C71.5496 293.18 60.9196 306.38 54.8696 314.27C53.6996 315.8 54.1996 329.17 45.7596 330.45C39.2896 331.43 40.7796 332.23 36.3096 336.51C29.3296 343.19 21.7996 345.3 18.8396 343.57C18.4896 343.37 15.6196 340.78 22.1696 336.05C28.5796 331.42 32.1696 326.15 34.5896 319.13C35.4796 316.54 23.7596 326.42 26.2096 323.36C28.6096 320.36 34.3596 314.08 38.1196 309C40.9796 305.13 46.8196 306.41 48.6196 304.46C58.3296 293.93 64.3096 283.17 63.9396 282.59C58.7896 274.63 56.9296 268.57 57.0396 268.1C57.1496 267.59 33.8196 255.61 35.5996 234.82C41.4196 166.85 0.0996094 184.23 0.0996094 184.23C0.0996094 184.23 5.6196 175.85 19.7796 173.82C28.5396 172.56 43.6896 174.41 53.5996 180.15C112.76 214.46 144.34 169.42 153.64 158.9C159.45 152.33 162.8 147.29 163.59 146.04C167.54 139.79 168.6 132.71 168.09 132.28C167.36 131.67 158.66 124.63 158.33 121.56C158.28 121.1 159.1 120.46 159.62 120.35C161.19 120.01 164.11 121.15 165.03 119.9C165.96 118.64 164.43 115.22 163.27 115.46C162.91 115.53 161.93 116.31 161.39 117.53C160.8 118.86 161.18 121.18 161.18 121.18C161.18 121.18 171.12 127.87 169.21 130.6C168.26 131.96 160.87 137.22 157.44 136.75C154 136.29 153.39 131.74 153.23 131.4C150.74 126.3 162.94 109.64 162.65 109.7C156.66 110.76 151.09 93.3701 151.09 93.3701C151.09 93.3701 149.94 89.6301 150.62 85.4901C151.16 82.1901 151.48 79.1401 151.48 75.9801C151.48 73.3101 152.94 64.7801 151.41 62.3201C150.27 60.4901 147.07 60.4301 145.68 59.6801C144.34 58.9601 141.17 55.7901 140.9 56.0301C140.2 56.6501 133.09 56.9201 131.98 56.4301C130.73 55.8801 127.19 52.8301 127.03 52.5701C125.31 49.7501 124.98 45.6601 125.08 43.9201C125.14 42.9201 124.99 40.6201 125.94 38.4701C126.65 36.8801 128.31 35.3801 129.34 34.5701C132.27 32.2801 135.98 33.9801 135.98 33.9801C135.98 33.9801 137.31 23.1701 146.43 21.2101C146.41 21.2201 153 19.3301 163.26 19.3301Z" fill="black"/>
<path d="M194.09 90.9005C194.09 90.9005 203.7 98.0704 199.51 106.27C193.16 118.71 193.27 140.69 195.6 148.72C196.68 152.45 211.24 178.25 230.65 201.25C242.89 215.76 241.44 232.46 252.06 249.66C255.94 255.94 273.26 288.21 283.68 311.66C285.28 315.26 287.78 322.11 283.84 327.2C279.26 333.12 266.59 337.23 268.17 340.07C268.69 341 276.09 341.79 282.83 341.75C292.45 341.69 303.79 339.99 303.79 339.99L312.09 336.98L309.68 319.51L286.33 258.36L263.74 220.52L250.14 175.29L253.52 174.22C253.52 174.22 238.93 136.91 240.39 118.24C240.39 118.22 240.4 118.2 240.4 118.19C243.98 104.06 245.32 91.4605 248.14 82.3105C248.92 79.7805 256.57 86.1805 266.03 89.8505C278.09 94.5305 292.51 98.3404 292.49 96.0504C292.48 94.8904 297.35 92.9405 294.07 84.1905C288.63 69.6905 273.91 45.9805 273.91 45.9805C273.91 45.9805 270.31 51.9705 268.7 53.1505C267.49 54.0405 262.6 54.2505 262.6 54.2505C262.6 54.2505 270.07 70.7105 267.6 68.6205C257.12 59.7805 247.32 52.4305 247.32 52.4305C247.32 52.4305 228.78 75.1905 224.71 78.8205C222.83 80.5005 217.15 83.5605 217.15 83.5605" fill="black"/>
<path d="M176.18 14.7897C176.18 14.7897 176.51 12.7697 178.69 10.9097C183.6 6.73973 193.7 0.119717 197.85 0.179717C199.67 0.199717 205.53 -0.200289 208.55 1.82971C210.29 2.99971 212.54 4.47972 213.58 6.08972C214.5 7.50972 215.76 10.9097 216.18 15.1597C216.46 18.0297 216.56 24.8097 216.59 29.8897C216.6 31.6597 217.86 34.1597 219.21 35.8497C220.56 37.5397 222.12 38.6997 221.48 39.9697C220.55 41.8397 216.37 45.2397 212.56 49.0697C209.96 51.6897 209.17 56.5597 207.14 56.9597C205.82 57.2197 206.46 54.3797 205.79 51.8397C205.1 49.2197 203.11 46.8997 202.01 46.8997C197.32 46.8997 195.42 51.8797 192.58 49.5297C190.94 48.1697 189.99 40.6497 188.34 40.2797C187.04 39.9897 185.86 40.9597 185.13 40.1597C184.1 39.0097 185.21 34.9197 185.03 33.0897C184.84 31.1597 183.14 24.4397 183.14 24.4397L180.54 24.2197C180.54 24.2197 176.75 21.7397 176.75 20.4797" fill="black"/>
<path d="M204.37 65.3492C204.37 65.3492 203.92 61.0191 203.84 60.4391C203.65 59.0891 202.71 55.1191 202.71 55.1191L193.83 62.9291L183.84 69.3792L197.72 68.4492C197.72 68.4492 204.38 67.4991 204.38 65.6591" fill="black"/>
<path d="M207.53 65.0207C207.53 65.0207 210.25 64.5907 211.08 64.2107C212.13 63.7307 213.96 62.1807 214.87 61.4407C217.16 59.5807 232.64 46.6707 232.64 46.6707L225.67 40.7207C225.67 40.7207 207.71 60.6907 207.71 65.0507" fill="black"/>
<path d="M163.26 19.3301C165.89 19.3301 171.02 20.5201 172.22 25.3201C172.93 28.1701 172.52 33.2301 171.16 36.3301C170.69 37.4001 172.75 39.1901 174 39.9601C175.47 40.8601 176.91 40.4201 177.34 41.3401C178 42.7501 176.97 43.4501 175.78 43.7801C174.59 44.1201 176.86 49.6601 176.86 49.6601C176.86 49.6601 177.95 53.6301 176.84 54.5201C173.79 56.9901 167.77 54.8201 166.3 60.7101C164.92 66.2701 165.78 76.7201 165.02 76.0401C164.87 75.9101 179.77 74.1901 194.32 74.1901C196.6 74.1901 206.14 75.7701 221.67 62.6401C231 54.7501 242.46 41.6401 250.62 32.3401C250.82 32.1101 251.19 31.2201 250.55 30.8201C249.73 30.3101 247.82 30.2801 247.78 29.8201C247.68 28.4601 250.36 27.4001 249.51 26.8601C248.11 25.9601 247.05 26.3301 247.22 25.6701C247.43 24.8501 248.31 24.7601 249.36 24.2601C249.85 24.0301 249.18 22.5501 249.74 22.2801C259.45 17.7401 265.1 24.7701 265.34 25.0001C265.87 25.5001 266.41 28.0701 266.08 31.7301C265.76 35.2601 266.11 34.4401 267.59 39.1101C268.65 42.4501 270.09 41.6101 269.54 44.5901C268.99 47.5701 264.33 48.7101 262.98 49.8901C262.21 50.5601 260.2 47.4601 257.46 43.9501C254.93 40.7101 255.17 35.4001 254.32 36.5501C248.91 43.9201 241.28 53.4201 233.11 63.7201C227.41 70.9101 221.46 75.5001 221.39 75.8101C220.54 79.5401 191.6 85.8501 171.08 89.8001C170.86 89.8401 171.08 91.2501 171.17 91.7201C171.3 92.3801 173.23 91.0501 175.73 90.5001C178.62 89.8601 183.77 90.6901 184.19 90.7701C186.59 91.2501 190.06 93.7701 191.99 96.7401C193.55 99.1501 193.79 102 193.99 103.17C194.11 103.91 193.51 110.3 191.98 111.4C191.48 111.76 187.69 125.5 188.08 135.92C188.53 148.01 192.81 157.52 192.41 156.82C190.7 153.81 207.75 179.97 205.94 179.39C205.67 179.3 218.84 190.85 225.91 208.36C231.33 221.78 238.79 228.97 238.79 247.19C238.79 252.98 227.03 262.92 212.14 273.19C210.81 274.1 209 300.89 209.45 318.02C209.61 324 209.14 330.95 210.18 331.15C212.3 331.54 217.89 334.95 219.42 335.77C222.06 337.19 221.48 338.39 221.48 338.39C221.48 338.39 202.18 342.69 200.24 333.51C196.3 314.82 193.89 319.07 193.89 319.07C193.89 319.07 191.11 339.02 191.11 333.41C191.11 329.07 190.08 314.18 189.95 310.18C189.77 304.68 199.51 302.32 199.51 297.07C199.51 287.48 199.54 281.51 199.19 281.73C193.33 285.46 187.37 289.08 181.74 292.42C179.53 293.73 180.42 311.27 176.2 323.4C175.8 324.56 176.51 328.07 176.31 331.29C176.12 334.51 175.03 337.44 175.03 337.44L164.14 337.41C164.14 337.41 160.35 334.01 152.31 338.13C150.7 338.96 150.12 338.75 148.22 338.82C145.05 338.94 140.41 338.89 137.43 338.67C130.4 338.15 125.05 337.47 125.33 334.98C125.72 331.54 140.71 330.52 147.66 325.22C155.92 318.91 153.87 315.89 155.4 310.97C156.65 306.95 158.31 305.84 157.83 306.1C153.85 308.29 151.47 309.56 151.47 309.56C151.47 309.56 110.66 320.01 87.5896 306.38C81.6096 302.85 76.4596 298.74 71.9696 293.66C71.5496 293.18 60.9196 306.38 54.8696 314.27C53.6996 315.8 54.1996 329.17 45.7596 330.45C39.2896 331.43 40.7796 332.23 36.3096 336.51C29.3296 343.19 21.7996 345.3 18.8396 343.57C18.4896 343.37 15.6196 340.78 22.1696 336.05C28.5796 331.42 32.1696 326.15 34.5896 319.13C35.4796 316.54 23.7596 326.42 26.2096 323.36C28.6096 320.36 34.3596 314.08 38.1196 309C40.9796 305.13 46.8196 306.41 48.6196 304.46C58.3296 293.93 64.3096 283.17 63.9396 282.59C58.7896 274.63 56.9296 268.57 57.0396 268.1C57.1496 267.59 33.8196 255.61 35.5996 234.82C41.4196 166.85 0.0996094 184.23 0.0996094 184.23C0.0996094 184.23 5.6196 175.85 19.7796 173.82C28.5396 172.56 43.6896 174.41 53.5996 180.15C112.76 214.46 144.34 169.42 153.64 158.9C159.45 152.33 162.8 147.29 163.59 146.04C167.54 139.79 168.6 132.71 168.09 132.28C167.36 131.67 158.66 124.63 158.33 121.56C158.28 121.1 159.1 120.46 159.62 120.35C161.19 120.01 164.11 121.15 165.03 119.9C165.96 118.64 164.43 115.22 163.27 115.46C162.91 115.53 161.93 116.31 161.39 117.53C160.8 118.86 161.18 121.18 161.18 121.18C161.18 121.18 171.12 127.87 169.21 130.6C168.26 131.96 160.87 137.22 157.44 136.75C154 136.29 153.39 131.74 153.23 131.4C150.74 126.3 162.94 109.64 162.65 109.7C156.66 110.76 151.09 93.3701 151.09 93.3701C151.09 93.3701 149.94 89.6301 150.62 85.4901C151.16 82.1901 151.48 79.1401 151.48 75.9801C151.48 73.3101 152.94 64.7801 151.41 62.3201C150.27 60.4901 147.07 60.4301 145.68 59.6801C144.34 58.9601 141.17 55.7901 140.9 56.0301C140.2 56.6501 133.09 56.9201 131.98 56.4301C130.73 55.8801 127.19 52.8301 127.03 52.5701C125.31 49.7501 124.98 45.6601 125.08 43.9201C125.14 42.9201 124.99 40.6201 125.94 38.4701C126.65 36.8801 128.31 35.3801 129.34 34.5701C132.27 32.2801 135.98 33.9801 135.98 33.9801C135.98 33.9801 137.31 23.1701 146.43 21.2101C146.41 21.2201 153 19.3301 163.26 19.3301Z" fill="black"/>
<path d="M194.09 90.9005C194.09 90.9005 203.7 98.0704 199.51 106.27C193.16 118.71 193.27 140.69 195.6 148.72C196.68 152.45 211.24 178.25 230.65 201.25C242.89 215.76 241.44 232.46 252.06 249.66C255.94 255.94 273.26 288.21 283.68 311.66C285.28 315.26 287.78 322.11 283.84 327.2C279.26 333.12 266.59 337.23 268.17 340.07C268.69 341 276.09 341.79 282.83 341.75C292.45 341.69 303.79 339.99 303.79 339.99L312.09 336.98L309.68 319.51L286.33 258.36L263.74 220.52L250.14 175.29L253.52 174.22C253.52 174.22 238.93 136.91 240.39 118.24C240.39 118.22 240.4 118.2 240.4 118.19C243.98 104.06 245.32 91.4605 248.14 82.3105C248.92 79.7805 256.57 86.1805 266.03 89.8505C278.09 94.5305 292.51 98.3404 292.49 96.0504C292.48 94.8904 297.35 92.9405 294.07 84.1905C288.63 69.6905 273.91 45.9805 273.91 45.9805C273.91 45.9805 270.31 51.9705 268.7 53.1505C267.49 54.0405 262.6 54.2505 262.6 54.2505C262.6 54.2505 270.07 70.7105 267.6 68.6205C257.12 59.7805 247.32 52.4305 247.32 52.4305C247.32 52.4305 228.78 75.1905 224.71 78.8205C222.83 80.5005 217.15 83.5605 217.15 83.5605" fill="black"/>
<path d="M176.18 14.7897C176.18 14.7897 176.51 12.7697 178.69 10.9097C183.6 6.73973 193.7 0.119717 197.85 0.179717C199.67 0.199717 205.53 -0.200289 208.55 1.82971C210.29 2.99971 212.54 4.47972 213.58 6.08972C214.5 7.50972 215.76 10.9097 216.18 15.1597C216.46 18.0297 216.56 24.8097 216.59 29.8897C216.6 31.6597 217.86 34.1597 219.21 35.8497C220.56 37.5397 222.12 38.6997 221.48 39.9697C220.55 41.8397 216.37 45.2397 212.56 49.0697C209.96 51.6897 209.17 56.5597 207.14 56.9597C205.82 57.2197 206.46 54.3797 205.79 51.8397C205.1 49.2197 203.11 46.8997 202.01 46.8997C197.32 46.8997 195.42 51.8797 192.58 49.5297C190.94 48.1697 189.99 40.6497 188.34 40.2797C187.04 39.9897 185.86 40.9597 185.13 40.1597C184.1 39.0097 185.21 34.9197 185.03 33.0897C184.84 31.1597 183.14 24.4397 183.14 24.4397L180.54 24.2197C180.54 24.2197 176.75 21.7397 176.75 20.4797" fill="black"/>
<path d="M204.37 65.3492C204.37 65.3492 203.92 61.0191 203.84 60.4391C203.65 59.0891 202.71 55.1191 202.71 55.1191L193.83 62.9291L183.84 69.3792L197.72 68.4492C197.72 68.4492 204.38 67.4991 204.38 65.6591" fill="black"/>
<path d="M207.53 65.0207C207.53 65.0207 210.25 64.5907 211.08 64.2107C212.13 63.7307 213.96 62.1807 214.87 61.4407C217.16 59.5807 232.64 46.6707 232.64 46.6707L225.67 40.7207C225.67 40.7207 207.71 60.6907 207.71 65.0507" fill="black"/>
<path d="M163.26 19.3301C165.89 19.3301 171.02 20.5201 172.22 25.3201C172.93 28.1701 172.52 33.2301 171.16 36.3301C170.69 37.4001 172.75 39.1901 174 39.9601C175.47 40.8601 176.91 40.4201 177.34 41.3401C178 42.7501 176.97 43.4501 175.78 43.7801C174.59 44.1201 176.86 49.6601 176.86 49.6601C176.86 49.6601 177.95 53.6301 176.84 54.5201C173.79 56.9901 167.77 54.8201 166.3 60.7101C164.92 66.2701 165.78 76.7201 165.02 76.0401C164.87 75.9101 179.77 74.1901 194.32 74.1901C196.6 74.1901 206.14 75.7701 221.67 62.6401C231 54.7501 242.46 41.6401 250.62 32.3401C250.82 32.1101 251.19 31.2201 250.55 30.8201C249.73 30.3101 247.82 30.2801 247.78 29.8201C247.68 28.4601 250.36 27.4001 249.51 26.8601C248.11 25.9601 247.05 26.3301 247.22 25.6701C247.43 24.8501 248.31 24.7601 249.36 24.2601C249.85 24.0301 249.18 22.5501 249.74 22.2801C259.45 17.7401 265.1 24.7701 265.34 25.0001C265.87 25.5001 266.41 28.0701 266.08 31.7301C265.76 35.2601 266.11 34.4401 267.59 39.1101C268.65 42.4501 270.09 41.6101 269.54 44.5901C268.99 47.5701 264.33 48.7101 262.98 49.8901C262.21 50.5601 260.2 47.4601 257.46 43.9501C254.93 40.7101 255.17 35.4001 254.32 36.5501C248.91 43.9201 241.28 53.4201 233.11 63.7201C227.41 70.9101 221.46 75.5001 221.39 75.8101C220.54 79.5401 191.6 85.8501 171.08 89.8001C170.86 89.8401 171.08 91.2501 171.17 91.7201C171.3 92.3801 173.23 91.0501 175.73 90.5001C178.62 89.8601 183.77 90.6901 184.19 90.7701C186.59 91.2501 190.06 93.7701 191.99 96.7401C193.55 99.1501 193.79 102 193.99 103.17C194.11 103.91 193.51 110.3 191.98 111.4C191.48 111.76 187.69 125.5 188.08 135.92C188.53 148.01 192.81 157.52 192.41 156.82C190.7 153.81 207.75 179.97 205.94 179.39C205.67 179.3 218.84 190.85 225.91 208.36C231.33 221.78 238.79 228.97 238.79 247.19C238.79 252.98 227.03 262.92 212.14 273.19C210.81 274.1 209 300.89 209.45 318.02C209.61 324 209.14 330.95 210.18 331.15C212.3 331.54 217.89 334.95 219.42 335.77C222.06 337.19 221.48 338.39 221.48 338.39C221.48 338.39 202.18 342.69 200.24 333.51C196.3 314.82 193.89 319.07 193.89 319.07C193.89 319.07 191.11 339.02 191.11 333.41C191.11 329.07 190.08 314.18 189.95 310.18C189.77 304.68 199.51 302.32 199.51 297.07C199.51 287.48 199.54 281.51 199.19 281.73C193.33 285.46 187.37 289.08 181.74 292.42C179.53 293.73 180.42 311.27 176.2 323.4C175.8 324.56 176.51 328.07 176.31 331.29C176.12 334.51 175.03 337.44 175.03 337.44L164.14 337.41C164.14 337.41 160.35 334.01 152.31 338.13C150.7 338.96 150.12 338.75 148.22 338.82C145.05 338.94 140.41 338.89 137.43 338.67C130.4 338.15 125.05 337.47 125.33 334.98C125.72 331.54 140.71 330.52 147.66 325.22C155.92 318.91 153.87 315.89 155.4 310.97C156.65 306.95 158.31 305.84 157.83 306.1C153.85 308.29 151.47 309.56 151.47 309.56C151.47 309.56 110.66 320.01 87.5896 306.38C81.6096 302.85 76.4596 298.74 71.9696 293.66C71.5496 293.18 60.9196 306.38 54.8696 314.27C53.6996 315.8 54.1996 329.17 45.7596 330.45C39.2896 331.43 40.7796 332.23 36.3096 336.51C29.3296 343.19 21.7996 345.3 18.8396 343.57C18.4896 343.37 15.6196 340.78 22.1696 336.05C28.5796 331.42 32.1696 326.15 34.5896 319.13C35.4796 316.54 23.7596 326.42 26.2096 323.36C28.6096 320.36 34.3596 314.08 38.1196 309C40.9796 305.13 46.8196 306.41 48.6196 304.46C58.3296 293.93 64.3096 283.17 63.9396 282.59C58.7896 274.63 56.9296 268.57 57.0396 268.1C57.1496 267.59 33.8196 255.61 35.5996 234.82C41.4196 166.85 0.0996094 184.23 0.0996094 184.23C0.0996094 184.23 5.6196 175.85 19.7796 173.82C28.5396 172.56 43.6896 174.41 53.5996 180.15C112.76 214.46 144.34 169.42 153.64 158.9C159.45 152.33 162.8 147.29 163.59 146.04C167.54 139.79 168.6 132.71 168.09 132.28C167.36 131.67 158.66 124.63 158.33 121.56C158.28 121.1 159.1 120.46 159.62 120.35C161.19 120.01 164.11 121.15 165.03 119.9C165.96 118.64 164.43 115.22 163.27 115.46C162.91 115.53 161.93 116.31 161.39 117.53C160.8 118.86 161.18 121.18 161.18 121.18C161.18 121.18 171.12 127.87 169.21 130.6C168.26 131.96 160.87 137.22 157.44 136.75C154 136.29 153.39 131.74 153.23 131.4C150.74 126.3 162.94 109.64 162.65 109.7C156.66 110.76 151.09 93.3701 151.09 93.3701C151.09 93.3701 149.94 89.6301 150.62 85.4901C151.16 82.1901 151.48 79.1401 151.48 75.9801C151.48 73.3101 152.94 64.7801 151.41 62.3201C150.27 60.4901 147.07 60.4301 145.68 59.6801C144.34 58.9601 141.17 55.7901 140.9 56.0301C140.2 56.6501 133.09 56.9201 131.98 56.4301C130.73 55.8801 127.19 52.8301 127.03 52.5701C125.31 49.7501 124.98 45.6601 125.08 43.9201C125.14 42.9201 124.99 40.6201 125.94 38.4701C126.65 36.8801 128.31 35.3801 129.34 34.5701C132.27 32.2801 135.98 33.9801 135.98 33.9801C135.98 33.9801 137.31 23.1701 146.43 21.2101C146.41 21.2201 153 19.3301 163.26 19.3301Z" fill="black"/>
<path d="M194.09 90.9005C194.09 90.9005 203.7 98.0704 199.51 106.27C193.16 118.71 193.27 140.69 195.6 148.72C196.68 152.45 211.24 178.25 230.65 201.25C242.89 215.76 241.44 232.46 252.06 249.66C255.94 255.94 273.26 288.21 283.68 311.66C285.28 315.26 287.78 322.11 283.84 327.2C279.26 333.12 266.59 337.23 268.17 340.07C268.69 341 276.09 341.79 282.83 341.75C292.45 341.69 303.79 339.99 303.79 339.99L312.09 336.98L309.68 319.51L286.33 258.36L263.74 220.52L250.14 175.29L253.52 174.22C253.52 174.22 238.93 136.91 240.39 118.24C240.39 118.22 240.4 118.2 240.4 118.19C243.98 104.06 245.32 91.4605 248.14 82.3105C248.92 79.7805 256.57 86.1805 266.03 89.8505C278.09 94.5305 292.51 98.3404 292.49 96.0504C292.48 94.8904 297.35 92.9405 294.07 84.1905C288.63 69.6905 273.91 45.9805 273.91 45.9805C273.91 45.9805 270.31 51.9705 268.7 53.1505C267.49 54.0405 262.6 54.2505 262.6 54.2505C262.6 54.2505 270.07 70.7105 267.6 68.6205C257.12 59.7805 247.32 52.4305 247.32 52.4305C247.32 52.4305 228.78 75.1905 224.71 78.8205C222.83 80.5005 217.15 83.5605 217.15 83.5605" fill="black"/>
<path d="M176.18 14.7897C176.18 14.7897 176.51 12.7697 178.69 10.9097C183.6 6.73973 193.7 0.119717 197.85 0.179717C199.67 0.199717 205.53 -0.200289 208.55 1.82971C210.29 2.99971 212.54 4.47972 213.58 6.08972C214.5 7.50972 215.76 10.9097 216.18 15.1597C216.46 18.0297 216.56 24.8097 216.59 29.8897C216.6 31.6597 217.86 34.1597 219.21 35.8497C220.56 37.5397 222.12 38.6997 221.48 39.9697C220.55 41.8397 216.37 45.2397 212.56 49.0697C209.96 51.6897 209.17 56.5597 207.14 56.9597C205.82 57.2197 206.46 54.3797 205.79 51.8397C205.1 49.2197 203.11 46.8997 202.01 46.8997C197.32 46.8997 195.42 51.8797 192.58 49.5297C190.94 48.1697 189.99 40.6497 188.34 40.2797C187.04 39.9897 185.86 40.9597 185.13 40.1597C184.1 39.0097 185.21 34.9197 185.03 33.0897C184.84 31.1597 183.14 24.4397 183.14 24.4397L180.54 24.2197C180.54 24.2197 176.75 21.7397 176.75 20.4797" fill="black"/>
<path d="M204.37 65.3492C204.37 65.3492 203.92 61.0191 203.84 60.4391C203.65 59.0891 202.71 55.1191 202.71 55.1191L193.83 62.9291L183.84 69.3792L197.72 68.4492C197.72 68.4492 204.38 67.4991 204.38 65.6591" fill="black"/>
<path d="M207.53 65.0207C207.53 65.0207 210.25 64.5907 211.08 64.2107C212.13 63.7307 213.96 62.1807 214.87 61.4407C217.16 59.5807 232.64 46.6707 232.64 46.6707L225.67 40.7207C225.67 40.7207 207.71 60.6907 207.71 65.0507" fill="black"/>
<path d="M163.26 19.3301C165.89 19.3301 171.02 20.5201 172.22 25.3201C172.93 28.1701 172.52 33.2301 171.16 36.3301C170.69 37.4001 172.75 39.1901 174 39.9601C175.47 40.8601 176.91 40.4201 177.34 41.3401C178 42.7501 176.97 43.4501 175.78 43.7801C174.59 44.1201 176.86 49.6601 176.86 49.6601C176.86 49.6601 177.95 53.6301 176.84 54.5201C173.79 56.9901 167.77 54.8201 166.3 60.7101C164.92 66.2701 165.78 76.7201 165.02 76.0401C164.87 75.9101 179.77 74.1901 194.32 74.1901C196.6 74.1901 206.14 75.7701 221.67 62.6401C231 54.7501 242.46 41.6401 250.62 32.3401C250.82 32.1101 251.19 31.2201 250.55 30.8201C249.73 30.3101 247.82 30.2801 247.78 29.8201C247.68 28.4601 250.36 27.4001 249.51 26.8601C248.11 25.9601 247.05 26.3301 247.22 25.6701C247.43 24.8501 248.31 24.7601 249.36 24.2601C249.85 24.0301 249.18 22.5501 249.74 22.2801C259.45 17.7401 265.1 24.7701 265.34 25.0001C265.87 25.5001 266.41 28.0701 266.08 31.7301C265.76 35.2601 266.11 34.4401 267.59 39.1101C268.65 42.4501 270.09 41.6101 269.54 44.5901C268.99 47.5701 264.33 48.7101 262.98 49.8901C262.21 50.5601 260.2 47.4601 257.46 43.9501C254.93 40.7101 255.17 35.4001 254.32 36.5501C248.91 43.9201 241.28 53.4201 233.11 63.7201C227.41 70.9101 221.46 75.5001 221.39 75.8101C220.54 79.5401 191.6 85.8501 171.08 89.8001C170.86 89.8401 171.08 91.2501 171.17 91.7201C171.3 92.3801 173.23 91.0501 175.73 90.5001C178.62 89.8601 183.77 90.6901 184.19 90.7701C186.59 91.2501 190.06 93.7701 191.99 96.7401C193.55 99.1501 193.79 102 193.99 103.17C194.11 103.91 193.51 110.3 191.98 111.4C191.48 111.76 187.69 125.5 188.08 135.92C188.53 148.01 192.81 157.52 192.41 156.82C190.7 153.81 207.75 179.97 205.94 179.39C205.67 179.3 218.84 190.85 225.91 208.36C231.33 221.78 238.79 228.97 238.79 247.19C238.79 252.98 227.03 262.92 212.14 273.19C210.81 274.1 209 300.89 209.45 318.02C209.61 324 209.14 330.95 210.18 331.15C212.3 331.54 217.89 334.95 219.42 335.77C222.06 337.19 221.48 338.39 221.48 338.39C221.48 338.39 202.18 342.69 200.24 333.51C196.3 314.82 193.89 319.07 193.89 319.07C193.89 319.07 191.11 339.02 191.11 333.41C191.11 329.07 190.08 314.18 189.95 310.18C189.77 304.68 199.51 302.32 199.51 297.07C199.51 287.48 199.54 281.51 199.19 281.73C193.33 285.46 187.37 289.08 181.74 292.42C179.53 293.73 180.42 311.27 176.2 323.4C175.8 324.56 176.51 328.07 176.31 331.29C176.12 334.51 175.03 337.44 175.03 337.44L164.14 337.41C164.14 337.41 160.35 334.01 152.31 338.13C150.7 338.96 150.12 338.75 148.22 338.82C145.05 338.94 140.41 338.89 137.43 338.67C130.4 338.15 125.05 337.47 125.33 334.98C125.72 331.54 140.71 330.52 147.66 325.22C155.92 318.91 153.87 315.89 155.4 310.97C156.65 306.95 158.31 305.84 157.83 306.1C153.85 308.29 151.47 309.56 151.47 309.56C151.47 309.56 110.66 320.01 87.5896 306.38C81.6096 302.85 76.4596 298.74 71.9696 293.66C71.5496 293.18 60.9196 306.38 54.8696 314.27C53.6996 315.8 54.1996 329.17 45.7596 330.45C39.2896 331.43 40.7796 332.23 36.3096 336.51C29.3296 343.19 21.7996 345.3 18.8396 343.57C18.4896 343.37 15.6196 340.78 22.1696 336.05C28.5796 331.42 32.1696 326.15 34.5896 319.13C35.4796 316.54 23.7596 326.42 26.2096 323.36C28.6096 320.36 34.3596 314.08 38.1196 309C40.9796 305.13 46.8196 306.41 48.6196 304.46C58.3296 293.93 64.3096 283.17 63.9396 282.59C58.7896 274.63 56.9296 268.57 57.0396 268.1C57.1496 267.59 33.8196 255.61 35.5996 234.82C41.4196 166.85 0.0996094 184.23 0.0996094 184.23C0.0996094 184.23 5.6196 175.85 19.7796 173.82C28.5396 172.56 43.6896 174.41 53.5996 180.15C112.76 214.46 144.34 169.42 153.64 158.9C159.45 152.33 162.8 147.29 163.59 146.04C167.54 139.79 168.6 132.71 168.09 132.28C167.36 131.67 158.66 124.63 158.33 121.56C158.28 121.1 159.1 120.46 159.62 120.35C161.19 120.01 164.11 121.15 165.03 119.9C165.96 118.64 164.43 115.22 163.27 115.46C162.91 115.53 161.93 116.31 161.39 117.53C160.8 118.86 161.18 121.18 161.18 121.18C161.18 121.18 171.12 127.87 169.21 130.6C168.26 131.96 160.87 137.22 157.44 136.75C154 136.29 153.39 131.74 153.23 131.4C150.74 126.3 162.94 109.64 162.65 109.7C156.66 110.76 151.09 93.3701 151.09 93.3701C151.09 93.3701 149.94 89.6301 150.62 85.4901C151.16 82.1901 151.48 79.1401 151.48 75.9801C151.48 73.3101 152.94 64.7801 151.41 62.3201C150.27 60.4901 147.07 60.4301 145.68 59.6801C144.34 58.9601 141.17 55.7901 140.9 56.0301C140.2 56.6501 133.09 56.9201 131.98 56.4301C130.73 55.8801 127.19 52.8301 127.03 52.5701C125.31 49.7501 124.98 45.6601 125.08 43.9201C125.14 42.9201 124.99 40.6201 125.94 38.4701C126.65 36.8801 128.31 35.3801 129.34 34.5701C132.27 32.2801 135.98 33.9801 135.98 33.9801C135.98 33.9801 137.31 23.1701 146.43 21.2101C146.41 21.2201 153 19.3301 163.26 19.3301Z" fill="black"/>
<path d="M474.55 53.1302C474.55 43.9202 453.23 35.0002 443.01 35.2802C427.53 35.8402 419.07 42.8102 419.07 57.8802C419.07 73.2202 422.87 84.6602 433.09 96.6602C440.68 95.5402 461.12 95.5403 461.12 106.42C461.12 110.88 455.57 114.23 451.19 114.23C440.97 114.23 430.17 106.98 423.16 100.56C369.73 107.81 339.65 180.62 339.65 219.4C339.65 236.7 346.07 255.94 367.68 255.94C395.13 255.94 428.71 225.81 434.84 225.81C435.13 225.81 435.72 226.09 435.72 226.37C435.72 237.81 381.7 260.12 365.06 259.29C337.32 257.9 318.63 229.44 318.34 205.45C317.76 150.77 363.89 102.23 419.95 97.2102C416.45 93.3002 402.43 80.4702 402.43 62.0602C402.43 40.8602 424.62 32.4902 443.31 32.4902C458.2 32.4902 470.76 41.1403 478.35 48.6703C480.39 50.6203 487.11 33.8802 495.58 33.8802C498.79 33.8802 502 34.7202 502 38.0602C502 46.9902 471.05 82.1403 466.38 82.1403C463.75 82.1403 463.17 78.5102 463.17 76.5602C463.17 71.2702 474.55 58.4402 474.55 53.1302ZM441.85 99.1602C439.81 99.1602 434.55 98.8802 434.55 98.8802C437.76 102.79 442.43 110.04 451.49 110.04C453.83 110.04 456.45 109.2 456.45 106.69C456.45 100 446.82 99.1602 441.85 99.1602Z" fill="#D899A2"/>
<path d="M472.5 237.531C461.11 237.531 457.61 226.931 457.61 217.721C457.61 174.761 543.75 14.6406 591.93 14.6406C598.35 14.6406 600.11 20.2206 600.11 25.2406C600.11 66.2506 527.7 131.241 493.82 154.401C487.98 160.821 464.62 211.031 464.62 224.701C464.62 229.161 465.2 235.581 471.34 235.581C489.15 235.861 522.15 206.011 533.83 193.181C535.58 191.231 537.04 190.391 537.63 190.391C537.92 190.391 538.21 190.951 538.21 191.231C538.21 191.791 537.33 192.621 533.83 196.531C522.43 208.801 491.48 237.531 472.5 237.531ZM597.77 24.4006C597.77 22.4506 597.19 18.5406 594.27 18.8206C573.83 19.9406 509.88 124.271 495.87 149.651C524.48 129.851 597.77 61.5006 597.77 24.4006Z" fill="#D899A2"/>
<path d="M596.891 241.99C587.841 241.99 581.711 232.5 581.711 224.69C581.711 216.88 586.971 209.07 586.971 202.09C586.971 201.81 586.971 200.69 586.391 200.69C584.051 200.69 542.591 237.79 527.701 237.79C520.111 237.79 518.061 232.49 518.061 226.07C518.061 187.29 579.961 150.75 617.051 150.75C622.311 150.75 635.151 150.75 635.151 158C635.151 160.79 633.401 163.58 630.481 163.58C626.981 163.58 623.761 158 621.431 156.05C616.171 151.03 602.451 153.26 595.441 156.61C577.041 165.26 529.161 212.68 529.161 231.65C529.161 233.05 529.741 234.16 531.501 234.16C547.271 234.16 592.231 184.78 602.161 184.23C606.251 183.95 607.711 187.86 607.711 191.2C607.711 204.59 593.691 218.82 593.691 232.21C593.691 235.28 595.441 238.9 598.951 238.9C608.001 239.18 643.331 207.1 657.061 193.15C659.101 191.2 660.271 190.36 660.861 190.36C661.151 190.36 661.441 190.92 661.441 191.2C661.441 191.76 660.561 192.59 657.061 196.5C642.731 212.42 608.861 241.99 596.891 241.99Z" fill="#D899A2"/>
<path d="M381.26 320.55C377.19 325.43 369.69 332.83 365.3 332.75C360.91 332.67 360.99 327.72 360.99 324.44C360.99 322.69 361.07 320.78 361.71 319.1C357.8 322.3 350.77 331.53 345.11 331.53C342.88 331.53 342 329.01 342 327.18C342 318.56 354.29 305.22 363.95 310.78C366.03 302.39 380.47 276 388.06 276C389.18 276 389.5 276.53 389.5 277.52C389.5 285.3 377.13 302.54 371.14 307.04C367.79 313.22 360.6 331.6 365.71 331.98C369.06 332.21 377.76 323.82 381.27 319.62C381.35 319.54 382.23 318.4 382.47 319.01C382.54 319.26 381.58 320.17 381.26 320.55ZM363.7 311.63C355.96 306.98 345.82 322.99 345.82 329.32C345.82 329.86 345.9 330.46 346.62 330.46C349.81 330.46 359.31 320.47 361.79 317.95C362.34 315.75 363.06 313.39 363.7 311.63ZM371.52 305.61C376.71 302.48 388.76 283.95 388.76 277.62C388.76 277.16 388.84 276.93 388.36 276.93C385.41 276.93 372.96 302.33 371.52 305.61Z" fill="black"/>
<path d="M398.5 332.991C396.03 332.991 394.35 330.401 394.35 328.261C394.35 326.121 395.79 323.991 395.79 322.081C395.79 322.001 395.79 321.701 395.63 321.701C394.99 321.701 383.66 331.841 379.59 331.841C377.51 331.841 376.96 330.391 376.96 328.641C376.96 318.041 393.88 308.051 404.02 308.051C405.46 308.051 408.97 308.051 408.97 310.031C408.97 310.791 408.49 311.561 407.69 311.561C406.73 311.561 405.85 310.031 405.22 309.501C403.78 308.131 400.03 308.741 398.12 309.651C393.09 312.021 380 324.981 380 330.171C380 330.551 380.16 330.861 380.64 330.861C384.95 330.861 397.24 317.361 399.96 317.211C401.08 317.131 401.48 318.201 401.48 319.121C401.48 322.781 397.65 326.671 397.65 330.331C397.65 331.171 398.13 332.161 399.09 332.161C401.56 332.241 411.22 323.471 414.97 319.651C415.53 319.121 415.85 318.891 416.01 318.891C416.09 318.891 416.17 319.041 416.17 319.121C416.17 319.271 415.93 319.501 414.97 320.571C411.03 324.901 401.77 332.991 398.5 332.991Z" fill="black"/>
<path d="M435.22 331.691C431.71 331.691 431.07 327.801 430.91 325.281C430.51 318.111 440.73 307.361 439.21 306.981C434.74 305.841 413.99 331.001 412.39 331.691C411.51 332.071 410.87 330.931 410.87 330.011C410.87 328.031 416.62 311.711 419.65 312.621C421.33 313.151 421.65 314.221 421.65 315.061C421.65 316.511 416.54 324.361 415.58 326.501C416.22 326.501 435.69 305.141 440.08 305.141C442.08 305.141 443.03 306.361 443.03 308.191C443.03 315.511 434.65 323.521 434.65 329.771C434.65 330.301 434.97 330.761 435.61 330.761C439.76 330.911 447.9 322.601 450.46 319.781C450.94 319.251 451.34 318.941 451.5 318.941C451.58 318.941 451.66 319.091 451.66 319.171C451.66 319.321 451.42 319.551 450.46 320.701C447.59 323.831 440.09 331.691 435.22 331.691Z" fill="black"/>
<path d="M457.57 332.6C452.78 332.6 449.67 328.64 449.67 324.29C449.67 315.98 458.13 307.51 466.83 307.51C469.78 307.51 471.38 310.1 471.38 312.62C471.38 314.07 469.54 318.11 467.79 318.11C467.15 318.11 466.83 317.58 466.83 316.97C466.83 314.45 470.02 313 470.02 310.49C470.02 309.27 468.5 308.2 467.31 308.2C460.13 308.2 454.46 322.23 454.46 327.8C454.46 330.24 455.9 332 458.53 331.84C463.88 331.54 471.86 324.59 476.73 319.64C477.29 319.11 477.61 318.8 477.77 318.8C477.85 318.8 477.93 318.95 477.93 319.03C477.93 319.18 477.77 319.49 476.73 320.56C472.73 324.83 464.03 332.6 457.57 332.6Z" fill="black"/>
<path d="M483.27 331.92C478.48 331.92 476.17 327.12 476.17 323.15C476.17 315.75 482.56 307.82 490.7 307.82C492.62 307.82 497.8 308.35 497.8 310.87C497.8 314.99 486.94 316.06 483.75 316.51C481.12 318.49 477.92 331.23 483.59 331.15C488.54 331.07 496.36 323.91 500.59 319.63C501.15 319.1 501.47 318.79 501.63 318.79C501.71 318.79 501.79 318.94 501.79 319.02C501.79 319.17 501.55 319.4 500.59 320.55C497.32 324.14 488.86 331.92 483.27 331.92ZM484.15 315.83C487.34 315.68 494.93 314.84 494.93 310.64C494.93 309.65 494.21 308.73 493.1 308.73C489.5 308.73 485.98 313.23 484.15 315.83Z" fill="black"/>
<path d="M516.16 320.55C515.6 321.08 515.28 321.31 515.12 321.31C515.04 321.31 514.96 321.16 514.96 321.08C514.96 320.93 515.2 320.7 516.16 319.63C518.79 316.5 521.75 313.61 524.54 310.4C524.54 307.12 525.18 302.01 529.89 302.01C530.37 302.01 530.69 302.24 530.69 302.7C530.69 304.53 527.9 307.12 526.78 308.57C526.78 313.6 529.41 318.56 529.41 323.75C529.41 324.97 528.93 326.72 527.89 327.87C531.96 325.89 535.23 323.52 538.9 319.63C539.46 319.1 539.78 318.79 539.94 318.79C540.02 318.79 540.1 318.94 540.1 319.02C540.1 319.17 539.86 319.4 538.9 320.55C535.71 324.06 531.8 327.26 527.01 329.01C524.46 331.68 520.3 333.51 516.55 333.51C513.76 333.51 510.88 332.52 510.88 329.39C510.88 327.41 511.84 326.11 514.07 326.11C516.94 326.11 519.5 328.02 522.29 328.25C524.29 325.2 525.08 321.46 525.08 317.88C525.08 315.67 524.76 313.46 524.6 311.25C524.62 311.25 516.55 320.17 516.16 320.55ZM516.63 327.42C514.63 327.42 512.56 328.41 512.56 330.7C512.56 332 513.68 332.91 515.11 332.91C517.66 332.91 520.3 330.93 521.82 329.1C520.15 328.64 518.39 327.42 516.63 327.42ZM529.56 303.93C529.72 303.32 529.72 302.94 529.24 302.94C527.88 302.94 526.77 305.84 526.77 306.83V307.75C527.41 306.75 529.33 305 529.56 303.93Z" fill="black"/>
<path d="M539.94 333.37C537.15 333.37 536.03 332 536.03 329.4C536.03 321.55 546.88 305 549.92 299.43H542.1H542.02C542.02 299.13 542.02 299.05 542.18 298.74C546.17 298.82 547.53 298.74 550.24 298.82C552.48 294.7 557.34 285.17 559.42 285.17C560.78 285.17 561.02 286.92 561.02 287.99C561.02 290.12 559.02 292.64 555.11 298.82C558.14 298.82 560.7 298.82 563.73 298.82L563.57 299.35L554.71 299.5C551.28 305.22 538.43 326.57 538.43 330.84C538.43 332.06 538.83 332.82 540.19 332.82C545.46 332.9 555.28 323.59 558.87 319.63C559.35 319.1 559.75 318.79 559.91 318.79C559.99 318.79 560.07 318.94 560.07 319.02C560.07 319.17 559.83 319.4 558.87 320.55C555.43 324.29 546.01 333.37 539.94 333.37Z" fill="black"/>
<path d="M575.7 333.21C573.7 333.21 573.46 331.3 573.46 329.85C573.46 323.82 578.17 317.65 578.33 314.9C575.38 318.03 563 331.98 559.01 331.98C556.86 331.98 556.7 330.61 556.7 328.78C556.7 325.12 560.69 308.57 564.76 308.57C566.44 308.57 567.39 309.48 567.39 311.09C567.39 316.35 559.17 323.9 559.17 329.7C559.17 330.23 559.33 330.77 559.97 330.77C563.72 330.77 581.76 308.88 583.28 308.88C584.88 308.88 586.15 309.72 586.23 311.32C586.31 313.07 570.9 331.53 576.49 332.22C579.12 332.52 589.1 323.68 592.85 319.64C593.41 319.11 593.73 318.8 593.89 318.8C593.97 318.8 594.05 318.95 594.05 319.03C594.05 319.18 593.81 319.41 592.85 320.56C588.71 325.13 579.37 333.21 575.7 333.21Z" fill="black"/>
<path d="M629.58 320.55C625.51 325.43 618.01 332.83 613.62 332.75C609.23 332.67 609.31 327.72 609.31 324.44C609.31 322.69 609.39 320.78 610.03 319.1C606.12 322.3 599.09 331.53 593.43 331.53C591.2 331.53 590.32 329.01 590.32 327.18C590.32 318.56 602.61 305.22 612.27 310.78C614.35 302.39 628.79 276 636.38 276C637.5 276 637.82 276.53 637.82 277.52C637.82 285.3 625.45 302.54 619.46 307.04C616.11 313.22 608.92 331.6 614.03 331.98C617.38 332.21 626.08 323.82 629.59 319.62C629.67 319.54 630.55 318.4 630.79 319.01C630.86 319.26 629.9 320.17 629.58 320.55ZM612.02 311.63C604.28 306.98 594.14 322.99 594.14 329.32C594.14 329.86 594.22 330.46 594.94 330.46C598.13 330.46 607.63 320.47 610.11 317.95C610.66 315.75 611.38 313.39 612.02 311.63ZM619.84 305.61C625.03 302.48 637.08 283.95 637.08 277.62C637.08 277.16 637.16 276.93 636.68 276.93C633.73 276.93 621.28 302.33 619.84 305.61Z" fill="black"/>
<path d="M634.53 319.95C630.46 324.68 627.51 329.02 629.98 330.63C633.65 333 645.15 322.55 647.62 319.72C647.94 319.42 648.58 318.65 648.74 318.81C649.14 319.11 648.18 319.95 647.62 320.56C643.71 325.06 633.65 333.52 629.26 331.16C625.19 328.95 629.02 320.79 630.22 317.89C631.26 315.45 635.17 307.44 638.76 310.11C640.67 311.55 638.52 315.29 634.53 319.95ZM640.91 305.99C639.15 305.99 637.96 304.77 637.96 303.17C637.96 301.8 639.64 300.5 640.99 300.5C642.59 300.5 643.78 301.72 643.78 303.17C643.79 304.77 642.59 305.99 640.91 305.99Z" fill="black"/>
<path d="M666.62 308.96C659.83 307.51 651.45 320.55 650.42 328.25C650.1 330.54 650.58 332.06 651.38 332.29C656.09 333.43 661.12 325.96 662.16 324.59C661.52 324.29 658.49 322.99 658.65 318.18C658.73 316.66 659.61 312.61 662.96 312.61C664.48 312.61 666.79 314.67 665.83 318.56C665.43 320.16 664.71 322.07 663.28 324.2C667.19 324.89 670.06 322.29 672.7 319.62C673.34 318.93 673.58 318.78 673.74 318.78C673.9 318.78 673.98 318.93 673.9 319.08C673.74 319.31 673.02 320.07 672.7 320.45C670.23 323.2 666.79 325.71 662.88 324.87C662.72 325.17 659.69 329.37 657.37 330.97C657.37 330.97 653.22 334.25 650.19 333.18C650.19 333.18 647.08 332.57 646.2 326.7C645.08 319.15 652.66 307.56 664.56 306.87C666.48 306.79 669.83 307.78 669.27 309.69C669.01 310.56 667.1 309.04 666.62 308.96ZM665.26 318.27C665.74 316.13 665.02 313.62 663.58 313.77C662.06 313.92 660.95 316.36 660.71 318.42C660.47 320.25 660.63 322.84 662.63 323.99C663.1 323.3 664.7 320.78 665.26 318.27Z" fill="black"/>
</g>
<defs>
<clipPath id="clip0_2695_2">
<rect width="674" height="344" fill="white"/>
</clipPath>
</defs>
</svg>
