<svg width="1667" height="598" viewBox="0 0 1667 598" fill="none" xmlns="http://www.w3.org/2000/svg">
<mask id="mask0_2621_50" style="mask-type:luminance" maskUnits="userSpaceOnUse" x="0" y="0" width="597" height="598">
<path d="M0 0H597V598H0V0Z" fill="white"/>
</mask>
<g mask="url(#mask0_2621_50)">
<path d="M226.563 135.155C226.563 153.252 211.916 167.924 193.848 167.924C175.781 167.924 161.135 153.252 161.135 135.155C161.135 117.057 175.781 102.385 193.848 102.385C211.916 102.385 226.563 117.057 226.563 135.155Z" stroke="black" stroke-width="20" stroke-miterlimit="10" stroke-linecap="round" stroke-linejoin="round"/>
<path d="M212.543 83.6603C212.543 94.0015 204.173 102.385 193.849 102.385C183.524 102.385 175.156 94.0015 175.156 83.6603C175.156 73.3191 183.524 64.9354 193.849 64.9354C204.173 64.9354 212.543 73.3191 212.543 83.6603Z" stroke="black" stroke-width="20" stroke-miterlimit="10" stroke-linecap="round" stroke-linejoin="round"/>
<path d="M408.895 139.836H408.763C390.732 139.836 376.114 125.194 376.114 107.133V92.985C376.114 82.6649 384.467 74.2975 394.771 74.2975H432.215C437.366 74.2975 441.543 78.4812 441.543 83.6413V107.133C441.543 125.194 426.926 139.836 408.895 139.836Z" stroke="black" stroke-width="20" stroke-miterlimit="10" stroke-linecap="round" stroke-linejoin="round"/>
<path d="M418.175 439.439L455.562 561.153L418.175 589.24L423.433 544.183L446.216 533.065" stroke="black" stroke-width="20" stroke-miterlimit="10" stroke-linecap="round" stroke-linejoin="round"/>
<path d="M427.522 158.561L517.145 14.9259C519.538 11.0903 523.735 8.76019 528.251 8.76019C537.887 8.76019 544.223 18.8316 540.066 27.5388L460.852 193.445C451.217 213.625 446.216 235.709 446.216 258.078V320.156C446.216 330.962 444.659 341.713 441.595 352.074L374.409 579.204C372.648 585.157 367.189 589.241 360.992 589.241C351.992 589.241 345.332 580.855 347.355 572.07L399.482 345.813" stroke="black" stroke-width="20" stroke-miterlimit="10" stroke-linecap="round" stroke-linejoin="round"/>
<path d="M322.284 204.134L350.923 171.35C358.021 163.224 368.278 158.561 379.059 158.561H390.135" stroke="black" stroke-width="20" stroke-miterlimit="10" stroke-linecap="round" stroke-linejoin="round"/>
<path d="M212.543 177.287H234.266C249.891 177.287 264.484 185.108 273.151 198.133L296.666 233.462" stroke="black" stroke-width="20" stroke-miterlimit="10" stroke-linecap="round" stroke-linejoin="round"/>
<path d="M212.543 167.924V186.649C212.543 196.99 204.173 205.374 193.849 205.374C183.524 205.374 175.156 196.99 175.156 186.649V167.924" stroke="black" stroke-width="20" stroke-miterlimit="10" stroke-linecap="round" stroke-linejoin="round"/>
<path d="M427.522 139.836V158.562C427.522 168.903 419.153 177.287 408.829 177.287C398.504 177.287 390.135 168.903 390.135 158.562V139.836" stroke="black" stroke-width="20" stroke-miterlimit="10" stroke-linecap="round" stroke-linejoin="round"/>
<path d="M175.155 167.924V177.286L100.38 130.473L83.5144 20.6677C82.4627 13.8164 76.5778 8.76025 69.6575 8.76025C61.1794 8.76025 54.6415 16.2399 55.7609 24.6586L70.3151 134C71.6129 143.74 76.6781 152.579 84.4216 158.612L156.462 214.737L165.808 270.912L91.0271 389.833C95.1338 390.782 98.8662 392.098 101.665 394.336C111.731 402.389 112.822 425.087 124.542 430.752C136.073 436.324 154.449 423.091 167.23 426.001C179.608 428.82 190.421 448.802 203.652 448.802C216.882 448.802 227.692 428.82 240.071 426.002C252.85 423.092 271.224 436.328 282.754 430.756C294.473 425.093 295.565 402.395 305.631 394.343C314.485 387.263 332.687 389.407 342.51 383.262L231.237 270.912L240.584 214.737L282.828 271.157C289.957 280.679 304.028 281.209 311.852 272.253L362.094 214.737L380.788 430.076" stroke="black" stroke-width="20" stroke-miterlimit="10" stroke-linecap="round" stroke-linejoin="round"/>
<path d="M165.808 270.912H231.237" stroke="black" stroke-width="20" stroke-miterlimit="10" stroke-linecap="round" stroke-linejoin="round"/>
<path d="M296.666 233.462L284.078 267.486" stroke="black" stroke-width="20" stroke-miterlimit="10" stroke-linecap="round" stroke-linejoin="round"/>
<path d="M84.8015 153.1L100.379 134.375" stroke="black" stroke-width="20" stroke-miterlimit="10" stroke-linecap="round" stroke-linejoin="round"/>
<path d="M498.112 48.3339L520.992 63.1799" stroke="black" stroke-width="20" stroke-miterlimit="10" stroke-linecap="round" stroke-linejoin="round"/>
<path d="M360.341 534.235L381.372 541.257" stroke="black" stroke-width="20" stroke-miterlimit="10" stroke-linecap="round" stroke-linejoin="round"/>
<path d="M176.323 431.832L212.542 589.24H220.543C226.338 589.24 230.931 584.343 230.57 578.55L224.518 480.693" stroke="black" stroke-width="20" stroke-miterlimit="10" stroke-linecap="round" stroke-linejoin="round"/>
<path d="M191.428 497.138L182.059 575.478C181.183 582.799 186.889 589.24 194.249 589.24H212.543" stroke="black" stroke-width="20" stroke-miterlimit="10" stroke-linecap="round" stroke-linejoin="round"/>
<path d="M372.609 316.555L443.879 306.022" stroke="black" stroke-width="20" stroke-miterlimit="10" stroke-linecap="round" stroke-linejoin="round"/>
</g>
<path d="M631.32 67.72V123.64H679.08V139H631.32V194.68H702.36V211H615V51.4H702.36V67.72H631.32ZM742.648 51.4V211H726.328V51.4H742.648ZM885.441 94.12V211H868.881V188.92C857.841 204.44 843.121 212.2 824.721 212.2C813.681 212.2 803.521 209.56 794.241 204.28C784.961 198.84 777.601 191.48 772.161 182.2C766.881 172.92 764.241 162.84 764.241 151.96C764.241 140.92 766.881 130.76 772.161 121.48C777.601 112.2 784.961 104.92 794.241 99.64C803.521 94.2 813.681 91.48 824.721 91.48C836.081 91.48 845.361 93.88 852.561 98.68C859.921 103.32 865.361 108.36 868.881 113.8V94.12H885.441ZM824.721 195.88C832.721 195.88 840.081 193.96 846.801 190.12C853.521 186.12 858.801 180.76 862.641 174.04C866.641 167.32 868.641 159.96 868.641 151.96C868.641 143.96 866.641 136.6 862.641 129.88C858.801 123 853.521 117.64 846.801 113.8C840.081 109.8 832.721 107.8 824.721 107.8C816.721 107.8 809.281 109.8 802.401 113.8C795.681 117.64 790.321 123 786.321 129.88C782.481 136.6 780.561 143.96 780.561 151.96C780.561 159.96 782.481 167.32 786.321 174.04C790.321 180.76 795.681 186.12 802.401 190.12C809.281 193.96 816.721 195.88 824.721 195.88ZM1017.42 211V51.16H1057.74C1072.3 51.16 1085.66 54.76 1097.82 61.96C1109.98 69.16 1119.66 78.84 1126.86 91C1134.06 103.16 1137.66 116.52 1137.66 131.08C1137.66 145.64 1134.06 159 1126.86 171.16C1119.66 183.32 1109.98 193 1097.82 200.2C1085.66 207.4 1072.3 211 1057.74 211H1017.42ZM1057.74 194.68C1069.26 194.68 1079.9 191.88 1089.66 186.28C1099.42 180.52 1107.1 172.76 1112.7 163C1118.46 153.24 1121.34 142.6 1121.34 131.08C1121.34 119.56 1118.46 108.92 1112.7 99.16C1107.1 89.4 1099.42 81.72 1089.66 76.12C1079.9 70.36 1069.26 67.48 1057.74 67.48H1033.98V194.68H1057.74ZM1273.33 94.12V211H1256.77V188.92C1245.73 204.44 1231.01 212.2 1212.61 212.2C1201.57 212.2 1191.41 209.56 1182.13 204.28C1172.85 198.84 1165.49 191.48 1160.05 182.2C1154.77 172.92 1152.13 162.84 1152.13 151.96C1152.13 140.92 1154.77 130.76 1160.05 121.48C1165.49 112.2 1172.85 104.92 1182.13 99.64C1191.41 94.2 1201.57 91.48 1212.61 91.48C1223.97 91.48 1233.25 93.88 1240.45 98.68C1247.81 103.32 1253.25 108.36 1256.77 113.8V94.12H1273.33ZM1212.61 195.88C1220.61 195.88 1227.97 193.96 1234.69 190.12C1241.41 186.12 1246.69 180.76 1250.53 174.04C1254.53 167.32 1256.53 159.96 1256.53 151.96C1256.53 143.96 1254.53 136.6 1250.53 129.88C1246.69 123 1241.41 117.64 1234.69 113.8C1227.97 109.8 1220.61 107.8 1212.61 107.8C1204.61 107.8 1197.17 109.8 1190.29 113.8C1183.57 117.64 1178.21 123 1174.21 129.88C1170.37 136.6 1168.45 143.96 1168.45 151.96C1168.45 159.96 1170.37 167.32 1174.21 174.04C1178.21 180.76 1183.57 186.12 1190.29 190.12C1197.17 193.96 1204.61 195.88 1212.61 195.88ZM1344.79 91C1353.43 91 1361.35 93.16 1368.55 97.48C1375.91 101.64 1381.75 107.4 1386.07 114.76C1390.39 121.96 1392.55 129.88 1392.55 138.52V211H1375.99V138.52C1375.99 132.92 1374.55 127.8 1371.67 123.16C1368.95 118.36 1365.19 114.6 1360.39 111.88C1355.59 109 1350.39 107.56 1344.79 107.56C1339.19 107.56 1333.99 109 1329.19 111.88C1324.39 114.6 1320.55 118.36 1317.67 123.16C1314.95 127.8 1313.59 132.92 1313.59 138.52V211H1297.27V94.12H1313.59V104.68C1317.59 100.2 1322.23 96.84 1327.51 94.6C1332.95 92.2 1338.71 91 1344.79 91ZM1518.38 190.84C1512.62 197.56 1505.74 202.84 1497.74 206.68C1489.9 210.36 1481.42 212.2 1472.3 212.2C1461.42 212.2 1451.34 209.48 1442.06 204.04C1432.78 198.6 1425.42 191.24 1419.98 181.96C1414.54 172.68 1411.82 162.6 1411.82 151.72C1411.82 140.84 1414.54 130.76 1419.98 121.48C1425.42 112.2 1432.78 104.84 1442.06 99.4C1451.34 93.96 1461.42 91.24 1472.3 91.24C1481.42 91.24 1489.9 93.16 1497.74 97C1505.74 100.68 1512.62 105.88 1518.38 112.6L1503.74 121C1499.74 116.84 1495.02 113.64 1489.58 111.4C1484.14 109 1478.38 107.8 1472.3 107.8C1464.3 107.8 1456.94 109.8 1450.22 113.8C1443.5 117.64 1438.14 122.92 1434.14 129.64C1430.14 136.36 1428.14 143.72 1428.14 151.72C1428.14 159.72 1430.14 167.08 1434.14 173.8C1438.14 180.52 1443.5 185.88 1450.22 189.88C1456.94 193.72 1464.3 195.64 1472.3 195.64C1478.38 195.64 1484.14 194.52 1489.58 192.28C1495.02 189.88 1499.74 186.6 1503.74 182.44L1518.38 190.84ZM1547.69 159.88C1549.61 170.12 1554.65 178.68 1562.81 185.56C1570.97 192.28 1580.33 195.64 1590.89 195.64C1598.73 195.64 1605.93 193.8 1612.49 190.12C1619.05 186.44 1624.33 181.4 1628.33 175L1642.49 183.16C1637.05 191.96 1629.77 199 1620.65 204.28C1611.53 209.56 1601.61 212.2 1590.89 212.2C1580.01 212.2 1569.93 209.48 1560.65 204.04C1551.37 198.6 1544.01 191.24 1538.57 181.96C1533.13 172.68 1530.41 162.6 1530.41 151.72C1530.41 140.68 1533.13 130.6 1538.57 121.48C1544.01 112.2 1551.37 104.84 1560.65 99.4C1569.93 93.96 1580.01 91.24 1590.89 91.24C1601.77 91.24 1611.85 93.96 1621.13 99.4C1630.41 104.84 1637.77 112.2 1643.21 121.48C1648.65 130.6 1651.37 140.68 1651.37 151.72C1651.37 153.64 1651.21 156.36 1650.89 159.88H1547.69ZM1590.89 107.56C1583.85 107.56 1576.97 109.24 1570.25 112.6C1563.53 115.8 1558.09 120.28 1553.93 126.04C1549.77 131.64 1547.69 137.72 1547.69 144.28H1634.09C1634.09 137.72 1632.01 131.64 1627.85 126.04C1623.69 120.28 1618.25 115.8 1611.53 112.6C1604.97 109.24 1598.09 107.56 1590.89 107.56Z" fill="black"/>
<path d="M766.6 359.2C765.267 349.067 762.067 340.267 757 332.8C746.6 316.8 729.4 308.8 705.4 308.8C685.4 308.8 670.867 313.333 661.8 322.4C653.533 330.933 649.4 342.533 649.4 357.2C649.4 373.467 653.933 384.667 663 390.8C672.067 396.933 684.733 400.667 701 402C716.467 403.333 729.533 405.467 740.2 408.4C750.867 411.067 759.8 414.8 767 419.6C785.933 431.333 795.4 449.733 795.4 474.8C795.4 484.667 793.4 494 789.4 502.8C785.667 511.6 780.2 519.467 773 526.4C756.733 542.4 734.467 550.4 706.2 550.4C677.667 550.4 655.133 542.533 638.6 526.8C624.467 513.733 615.933 496.133 613 474H640.6C643 487.333 648.6 498.267 657.4 506.8C668.867 517.467 685.267 522.8 706.6 522.8C724.733 522.8 739.4 518.4 750.6 509.6C762.067 500.533 767.8 488.933 767.8 474.8C767.8 465.733 765.933 458.267 762.2 452.4C758.733 446.267 751.933 441.333 741.8 437.6C731.667 433.867 717.267 431.2 698.6 429.6C647.4 425.067 621.8 400.933 621.8 357.2C621.8 346.267 623.533 336.267 627 327.2C630.733 317.867 635.933 309.867 642.6 303.2C657.267 288.533 678.067 281.2 705 281.2H705.4C732.867 281.467 753.8 289.067 768.2 304C782.867 318.667 791.533 337.2 794.2 359.6H766.6V359.2ZM921.453 375.2H888.253V548H860.653V375.2H827.453V348H860.653V282H888.253V348H921.453V375.2ZM1033.23 549.6C1018.83 549.6 1005.49 546.133 993.225 539.2C981.225 532 971.625 522.4 964.425 510.4C957.225 498.133 953.625 484.8 953.625 470.4V348H981.225V470.4C981.225 479.733 983.492 488.4 988.025 496.4C992.825 504.4 999.225 510.8 1007.23 515.6C1015.23 520.133 1023.89 522.4 1033.23 522.4C1042.56 522.4 1051.23 520.133 1059.23 515.6C1067.23 510.8 1073.49 504.4 1078.03 496.4C1082.83 488.4 1085.23 479.733 1085.23 470.4V348H1112.43V546H1085.23V526.8C1078.56 534.267 1070.69 540 1061.63 544C1052.83 547.733 1043.36 549.6 1033.23 549.6ZM1347.44 548H1320.64V510.8C1301.17 536.933 1276.24 550 1245.84 550C1227.44 550 1210.51 545.467 1195.04 536.4C1179.57 527.333 1167.31 515.067 1158.24 499.6C1149.17 483.867 1144.64 466.933 1144.64 448.8C1144.64 430.667 1149.17 413.867 1158.24 398.4C1167.31 382.667 1179.57 370.267 1195.04 361.2C1210.51 352.133 1227.44 347.6 1245.84 347.6C1277.31 347.6 1302.24 360 1320.64 384.8V282.4H1347.44V548ZM1319.84 448.8C1319.84 435.467 1316.51 423.2 1309.84 412C1303.17 400.8 1294.11 391.867 1282.64 385.2C1271.44 378.533 1259.17 375.2 1245.84 375.2C1232.51 375.2 1220.24 378.533 1209.04 385.2C1197.84 391.867 1188.91 400.8 1182.24 412C1175.57 423.2 1172.24 435.467 1172.24 448.8C1172.24 462.133 1175.57 474.533 1182.24 486C1188.91 497.2 1197.84 506.133 1209.04 512.8C1220.24 519.467 1232.51 522.8 1245.84 522.8C1259.17 522.8 1271.44 519.467 1282.64 512.8C1294.11 506.133 1303.17 497.2 1309.84 486C1316.51 474.533 1319.84 462.133 1319.84 448.8ZM1405.31 292.4C1410.11 292.4 1414.25 294.133 1417.71 297.6C1421.18 301.067 1422.91 305.2 1422.91 310C1422.91 315.067 1421.18 319.333 1417.71 322.8C1414.25 326.267 1410.11 328 1405.31 328C1400.25 328 1395.98 326.267 1392.51 322.8C1389.05 319.333 1387.31 315.067 1387.31 310C1387.31 305.2 1389.05 301.067 1392.51 297.6C1395.98 294.133 1400.25 292.4 1405.31 292.4ZM1418.91 348V548H1391.31V348H1418.91ZM1548.18 550C1530.05 550 1513.12 545.467 1497.38 536.4C1481.92 527.333 1469.65 515.067 1460.58 499.6C1451.52 483.867 1446.98 466.933 1446.98 448.8C1446.98 430.4 1451.52 413.467 1460.58 398C1469.65 382.267 1481.92 369.867 1497.38 360.8C1513.12 351.467 1530.05 346.8 1548.18 346.8C1566.58 346.8 1583.52 351.467 1598.98 360.8C1614.72 369.867 1627.12 382.267 1636.18 398C1645.52 413.467 1650.18 430.4 1650.18 448.8C1650.18 466.933 1645.52 483.867 1636.18 499.6C1627.12 515.067 1614.72 527.333 1598.98 536.4C1583.52 545.467 1566.58 550 1548.18 550ZM1548.18 523.2C1561.78 523.2 1574.18 519.867 1585.38 513.2C1596.85 506.533 1605.92 497.467 1612.58 486C1619.25 474.533 1622.58 462.133 1622.58 448.8C1622.58 435.2 1619.25 422.667 1612.58 411.2C1605.92 399.733 1596.85 390.667 1585.38 384C1574.18 377.333 1561.78 374 1548.18 374C1534.85 374 1522.45 377.333 1510.98 384C1499.78 390.667 1490.85 399.733 1484.18 411.2C1477.52 422.667 1474.18 435.2 1474.18 448.8C1474.18 462.133 1477.52 474.533 1484.18 486C1490.85 497.467 1499.78 506.533 1510.98 513.2C1522.45 519.867 1534.85 523.2 1548.18 523.2Z" fill="black"/>
</svg>
