<svg width="659" height="344" viewBox="0 0 659 344" fill="none" xmlns="http://www.w3.org/2000/svg">
<g clip-path="url(#clip0_2710_2)">
<path d="M176.18 15.0397C176.18 15.0397 176.51 13.0197 178.69 11.1597C183.6 6.98973 193.7 0.369717 197.85 0.429717C199.67 0.449717 205.53 0.0497108 208.55 2.07971C210.29 3.24971 212.54 4.72972 213.58 6.33972C214.5 7.75972 215.76 11.1597 216.18 15.4097C216.46 18.2797 216.56 25.0597 216.59 30.1397C216.6 31.9097 217.86 34.4097 219.21 36.0997C220.56 37.7897 222.12 38.9497 221.48 40.2197C220.55 42.0897 216.37 45.4897 212.56 49.3197C209.96 51.9397 209.17 56.8097 207.14 57.2097C205.82 57.4697 206.46 54.6297 205.79 52.0897C205.1 49.4697 203.11 47.1497 202.01 47.1497C197.32 47.1497 195.42 52.1297 192.58 49.7797C190.94 48.4197 189.99 40.8997 188.34 40.5297C187.04 40.2397 185.86 41.2097 185.13 40.4097C184.1 39.2597 185.21 35.1697 185.03 33.3397C184.84 31.4097 183.14 24.6897 183.14 24.6897L180.54 24.4697C180.54 24.4697 176.75 21.9897 176.75 20.7297" fill="black"/>
<path d="M204.37 65.5992C204.37 65.5992 203.92 61.2691 203.84 60.6891C203.65 59.3391 202.71 55.3691 202.71 55.3691L193.83 63.1791L183.84 69.6292L197.72 68.6992C197.72 68.6992 204.38 67.7491 204.38 65.9091" fill="black"/>
<path d="M207.53 65.2707C207.53 65.2707 210.25 64.8407 211.08 64.4607C212.13 63.9807 213.96 62.4307 214.87 61.6907C217.16 59.8307 232.64 46.9207 232.64 46.9207L225.67 40.9707C225.67 40.9707 207.71 60.9407 207.71 65.3007" fill="black"/>
<path d="M163.26 19.5801C165.89 19.5801 171.02 20.7701 172.22 25.5701C172.93 28.4201 172.52 33.4801 171.16 36.5801C170.69 37.6501 172.75 39.4401 174 40.2101C175.47 41.1101 176.91 40.6701 177.34 41.5901C178 43.0001 176.97 43.7001 175.78 44.0301C174.59 44.3701 176.86 49.9101 176.86 49.9101C176.86 49.9101 177.95 53.8801 176.84 54.7701C173.79 57.2401 167.77 55.0701 166.3 60.9601C164.92 66.5201 165.78 76.9701 165.02 76.2901C164.87 76.1601 179.77 74.4401 194.32 74.4401C196.6 74.4401 206.14 76.0201 221.67 62.8901C231 55.0001 242.46 41.8901 250.62 32.5901C250.82 32.3601 251.19 31.4701 250.55 31.0701C249.73 30.5601 247.82 30.5301 247.78 30.0701C247.68 28.7101 250.36 27.6501 249.51 27.1101C248.11 26.2101 247.05 26.5801 247.22 25.9201C247.43 25.1001 248.31 25.0101 249.36 24.5101C249.85 24.2801 249.18 22.8001 249.74 22.5301C259.45 17.9901 265.1 25.0201 265.34 25.2501C265.87 25.7501 266.41 28.3201 266.08 31.9801C265.76 35.5101 266.11 34.6901 267.59 39.3601C268.65 42.7001 270.09 41.8601 269.54 44.8401C268.99 47.8201 264.33 48.9601 262.98 50.1401C262.21 50.8101 260.2 47.7101 257.46 44.2001C254.93 40.9601 255.17 35.6501 254.32 36.8001C248.91 44.1701 241.28 53.6701 233.11 63.9701C227.41 71.1601 221.46 75.7501 221.39 76.0601C220.54 79.7901 191.6 86.1001 171.08 90.0501C170.86 90.0901 171.08 91.5001 171.17 91.9701C171.3 92.6301 173.23 91.3001 175.73 90.7501C178.62 90.1101 183.77 90.9401 184.19 91.0201C186.59 91.5001 190.06 94.0201 191.99 96.9901C193.55 99.4001 193.79 102.25 193.99 103.42C194.11 104.16 193.51 110.55 191.98 111.65C191.48 112.01 187.69 125.75 188.08 136.17C188.53 148.26 192.81 157.77 192.41 157.07C190.7 154.06 207.75 180.22 205.94 179.64C205.67 179.55 218.84 191.1 225.91 208.61C231.33 222.03 238.79 229.22 238.79 247.44C238.79 253.23 227.03 263.17 212.14 273.44C210.81 274.35 209 301.14 209.45 318.27C209.61 324.25 209.14 331.2 210.18 331.4C212.3 331.79 217.89 335.2 219.42 336.02C222.06 337.44 221.48 338.64 221.48 338.64C221.48 338.64 202.18 342.94 200.24 333.76C196.3 315.07 193.89 319.32 193.89 319.32C193.89 319.32 191.11 339.27 191.11 333.66C191.11 329.32 190.08 314.43 189.95 310.43C189.77 304.93 199.51 302.57 199.51 297.32C199.51 287.73 199.54 281.76 199.19 281.98C193.33 285.71 187.37 289.33 181.74 292.67C179.53 293.98 180.42 311.52 176.2 323.65C175.8 324.81 176.51 328.32 176.31 331.54C176.12 334.76 175.03 337.69 175.03 337.69L164.14 337.66C164.14 337.66 160.35 334.26 152.31 338.38C150.7 339.21 150.12 339 148.22 339.07C145.05 339.19 140.41 339.14 137.43 338.92C130.4 338.4 125.05 337.72 125.33 335.23C125.72 331.79 140.71 330.77 147.66 325.47C155.92 319.16 153.87 316.14 155.4 311.22C156.65 307.2 158.31 306.09 157.83 306.35C153.85 308.54 151.47 309.81 151.47 309.81C151.47 309.81 110.66 320.26 87.5896 306.63C81.6096 303.1 76.4596 298.99 71.9696 293.91C71.5496 293.43 60.9196 306.63 54.8696 314.52C53.6996 316.05 54.1996 329.42 45.7596 330.7C39.2896 331.68 40.7796 332.48 36.3096 336.76C29.3296 343.44 21.7996 345.55 18.8396 343.82C18.4896 343.62 15.6196 341.03 22.1696 336.3C28.5796 331.67 32.1696 326.4 34.5896 319.38C35.4796 316.79 23.7596 326.67 26.2096 323.61C28.6096 320.61 34.3596 314.33 38.1196 309.25C40.9796 305.38 46.8196 306.66 48.6196 304.71C58.3296 294.18 64.3096 283.42 63.9396 282.84C58.7896 274.88 56.9296 268.82 57.0396 268.35C57.1496 267.84 33.8196 255.86 35.5996 235.07C41.4196 167.1 0.0996094 184.48 0.0996094 184.48C0.0996094 184.48 5.6196 176.1 19.7796 174.07C28.5396 172.81 43.6896 174.66 53.5996 180.4C112.76 214.71 144.34 169.67 153.64 159.15C159.45 152.58 162.8 147.54 163.59 146.29C167.54 140.04 168.6 132.96 168.09 132.53C167.36 131.92 158.66 124.88 158.33 121.81C158.28 121.35 159.1 120.71 159.62 120.6C161.19 120.26 164.11 121.4 165.03 120.15C165.96 118.89 164.43 115.47 163.27 115.71C162.91 115.78 161.93 116.56 161.39 117.78C160.8 119.11 161.18 121.43 161.18 121.43C161.18 121.43 171.12 128.12 169.21 130.85C168.26 132.21 160.87 137.47 157.44 137C154 136.54 153.39 131.99 153.23 131.65C150.74 126.55 162.94 109.89 162.65 109.95C156.66 111.01 151.09 93.6201 151.09 93.6201C151.09 93.6201 149.94 89.8801 150.62 85.7401C151.16 82.4401 151.48 79.3901 151.48 76.2301C151.48 73.5601 152.94 65.0301 151.41 62.5701C150.27 60.7401 147.07 60.6801 145.68 59.9301C144.34 59.2101 141.17 56.0401 140.9 56.2801C140.2 56.9001 133.09 57.1701 131.98 56.6801C130.73 56.1301 127.19 53.0801 127.03 52.8201C125.31 50.0001 124.98 45.9101 125.08 44.1701C125.14 43.1701 124.99 40.8701 125.94 38.7201C126.65 37.1301 128.31 35.6301 129.34 34.8201C132.27 32.5301 135.98 34.2301 135.98 34.2301C135.98 34.2301 137.31 23.4201 146.43 21.4601C146.41 21.4701 153 19.5801 163.26 19.5801Z" fill="black"/>
<path d="M194.09 91.1505C194.09 91.1505 203.7 98.3204 199.51 106.52C193.16 118.96 193.27 140.94 195.6 148.97C196.68 152.7 211.24 178.5 230.65 201.5C242.89 216.01 241.44 232.71 252.06 249.91C255.94 256.19 273.26 288.46 283.68 311.91C285.28 315.51 287.78 322.36 283.84 327.45C279.26 333.37 266.59 337.48 268.17 340.32C268.69 341.25 276.09 342.04 282.83 342C292.45 341.94 303.79 340.24 303.79 340.24L312.09 337.23L309.68 319.76L286.33 258.61L263.74 220.77L250.14 175.54L253.52 174.47C253.52 174.47 238.93 137.16 240.39 118.49C240.39 118.47 240.4 118.45 240.4 118.44C243.98 104.31 245.32 91.7105 248.14 82.5605C248.92 80.0305 256.57 86.4305 266.03 90.1005C278.09 94.7805 292.51 98.5904 292.49 96.3004C292.48 95.1404 297.35 93.1905 294.07 84.4405C288.63 69.9405 273.91 46.2305 273.91 46.2305C273.91 46.2305 270.31 52.2205 268.7 53.4005C267.49 54.2905 262.6 54.5005 262.6 54.5005C262.6 54.5005 270.07 70.9605 267.6 68.8705C257.12 60.0305 247.32 52.6805 247.32 52.6805C247.32 52.6805 228.78 75.4405 224.71 79.0705C222.83 80.7505 217.15 83.8105 217.15 83.8105" fill="black"/>
<path d="M176.18 15.0397C176.18 15.0397 176.51 13.0197 178.69 11.1597C183.6 6.98973 193.7 0.369717 197.85 0.429717C199.67 0.449717 205.53 0.0497108 208.55 2.07971C210.29 3.24971 212.54 4.72972 213.58 6.33972C214.5 7.75972 215.76 11.1597 216.18 15.4097C216.46 18.2797 216.56 25.0597 216.59 30.1397C216.6 31.9097 217.86 34.4097 219.21 36.0997C220.56 37.7897 222.12 38.9497 221.48 40.2197C220.55 42.0897 216.37 45.4897 212.56 49.3197C209.96 51.9397 209.17 56.8097 207.14 57.2097C205.82 57.4697 206.46 54.6297 205.79 52.0897C205.1 49.4697 203.11 47.1497 202.01 47.1497C197.32 47.1497 195.42 52.1297 192.58 49.7797C190.94 48.4197 189.99 40.8997 188.34 40.5297C187.04 40.2397 185.86 41.2097 185.13 40.4097C184.1 39.2597 185.21 35.1697 185.03 33.3397C184.84 31.4097 183.14 24.6897 183.14 24.6897L180.54 24.4697C180.54 24.4697 176.75 21.9897 176.75 20.7297" fill="black"/>
<path d="M204.37 65.5992C204.37 65.5992 203.92 61.2691 203.84 60.6891C203.65 59.3391 202.71 55.3691 202.71 55.3691L193.83 63.1791L183.84 69.6292L197.72 68.6992C197.72 68.6992 204.38 67.7491 204.38 65.9091" fill="black"/>
<path d="M207.53 65.2707C207.53 65.2707 210.25 64.8407 211.08 64.4607C212.13 63.9807 213.96 62.4307 214.87 61.6907C217.16 59.8307 232.64 46.9207 232.64 46.9207L225.67 40.9707C225.67 40.9707 207.71 60.9407 207.71 65.3007" fill="black"/>
<path d="M163.26 19.5801C165.89 19.5801 171.02 20.7701 172.22 25.5701C172.93 28.4201 172.52 33.4801 171.16 36.5801C170.69 37.6501 172.75 39.4401 174 40.2101C175.47 41.1101 176.91 40.6701 177.34 41.5901C178 43.0001 176.97 43.7001 175.78 44.0301C174.59 44.3701 176.86 49.9101 176.86 49.9101C176.86 49.9101 177.95 53.8801 176.84 54.7701C173.79 57.2401 167.77 55.0701 166.3 60.9601C164.92 66.5201 165.78 76.9701 165.02 76.2901C164.87 76.1601 179.77 74.4401 194.32 74.4401C196.6 74.4401 206.14 76.0201 221.67 62.8901C231 55.0001 242.46 41.8901 250.62 32.5901C250.82 32.3601 251.19 31.4701 250.55 31.0701C249.73 30.5601 247.82 30.5301 247.78 30.0701C247.68 28.7101 250.36 27.6501 249.51 27.1101C248.11 26.2101 247.05 26.5801 247.22 25.9201C247.43 25.1001 248.31 25.0101 249.36 24.5101C249.85 24.2801 249.18 22.8001 249.74 22.5301C259.45 17.9901 265.1 25.0201 265.34 25.2501C265.87 25.7501 266.41 28.3201 266.08 31.9801C265.76 35.5101 266.11 34.6901 267.59 39.3601C268.65 42.7001 270.09 41.8601 269.54 44.8401C268.99 47.8201 264.33 48.9601 262.98 50.1401C262.21 50.8101 260.2 47.7101 257.46 44.2001C254.93 40.9601 255.17 35.6501 254.32 36.8001C248.91 44.1701 241.28 53.6701 233.11 63.9701C227.41 71.1601 221.46 75.7501 221.39 76.0601C220.54 79.7901 191.6 86.1001 171.08 90.0501C170.86 90.0901 171.08 91.5001 171.17 91.9701C171.3 92.6301 173.23 91.3001 175.73 90.7501C178.62 90.1101 183.77 90.9401 184.19 91.0201C186.59 91.5001 190.06 94.0201 191.99 96.9901C193.55 99.4001 193.79 102.25 193.99 103.42C194.11 104.16 193.51 110.55 191.98 111.65C191.48 112.01 187.69 125.75 188.08 136.17C188.53 148.26 192.81 157.77 192.41 157.07C190.7 154.06 207.75 180.22 205.94 179.64C205.67 179.55 218.84 191.1 225.91 208.61C231.33 222.03 238.79 229.22 238.79 247.44C238.79 253.23 227.03 263.17 212.14 273.44C210.81 274.35 209 301.14 209.45 318.27C209.61 324.25 209.14 331.2 210.18 331.4C212.3 331.79 217.89 335.2 219.42 336.02C222.06 337.44 221.48 338.64 221.48 338.64C221.48 338.64 202.18 342.94 200.24 333.76C196.3 315.07 193.89 319.32 193.89 319.32C193.89 319.32 191.11 339.27 191.11 333.66C191.11 329.32 190.08 314.43 189.95 310.43C189.77 304.93 199.51 302.57 199.51 297.32C199.51 287.73 199.54 281.76 199.19 281.98C193.33 285.71 187.37 289.33 181.74 292.67C179.53 293.98 180.42 311.52 176.2 323.65C175.8 324.81 176.51 328.32 176.31 331.54C176.12 334.76 175.03 337.69 175.03 337.69L164.14 337.66C164.14 337.66 160.35 334.26 152.31 338.38C150.7 339.21 150.12 339 148.22 339.07C145.05 339.19 140.41 339.14 137.43 338.92C130.4 338.4 125.05 337.72 125.33 335.23C125.72 331.79 140.71 330.77 147.66 325.47C155.92 319.16 153.87 316.14 155.4 311.22C156.65 307.2 158.31 306.09 157.83 306.35C153.85 308.54 151.47 309.81 151.47 309.81C151.47 309.81 110.66 320.26 87.5896 306.63C81.6096 303.1 76.4596 298.99 71.9696 293.91C71.5496 293.43 60.9196 306.63 54.8696 314.52C53.6996 316.05 54.1996 329.42 45.7596 330.7C39.2896 331.68 40.7796 332.48 36.3096 336.76C29.3296 343.44 21.7996 345.55 18.8396 343.82C18.4896 343.62 15.6196 341.03 22.1696 336.3C28.5796 331.67 32.1696 326.4 34.5896 319.38C35.4796 316.79 23.7596 326.67 26.2096 323.61C28.6096 320.61 34.3596 314.33 38.1196 309.25C40.9796 305.38 46.8196 306.66 48.6196 304.71C58.3296 294.18 64.3096 283.42 63.9396 282.84C58.7896 274.88 56.9296 268.82 57.0396 268.35C57.1496 267.84 33.8196 255.86 35.5996 235.07C41.4196 167.1 0.0996094 184.48 0.0996094 184.48C0.0996094 184.48 5.6196 176.1 19.7796 174.07C28.5396 172.81 43.6896 174.66 53.5996 180.4C112.76 214.71 144.34 169.67 153.64 159.15C159.45 152.58 162.8 147.54 163.59 146.29C167.54 140.04 168.6 132.96 168.09 132.53C167.36 131.92 158.66 124.88 158.33 121.81C158.28 121.35 159.1 120.71 159.62 120.6C161.19 120.26 164.11 121.4 165.03 120.15C165.96 118.89 164.43 115.47 163.27 115.71C162.91 115.78 161.93 116.56 161.39 117.78C160.8 119.11 161.18 121.43 161.18 121.43C161.18 121.43 171.12 128.12 169.21 130.85C168.26 132.21 160.87 137.47 157.44 137C154 136.54 153.39 131.99 153.23 131.65C150.74 126.55 162.94 109.89 162.65 109.95C156.66 111.01 151.09 93.6201 151.09 93.6201C151.09 93.6201 149.94 89.8801 150.62 85.7401C151.16 82.4401 151.48 79.3901 151.48 76.2301C151.48 73.5601 152.94 65.0301 151.41 62.5701C150.27 60.7401 147.07 60.6801 145.68 59.9301C144.34 59.2101 141.17 56.0401 140.9 56.2801C140.2 56.9001 133.09 57.1701 131.98 56.6801C130.73 56.1301 127.19 53.0801 127.03 52.8201C125.31 50.0001 124.98 45.9101 125.08 44.1701C125.14 43.1701 124.99 40.8701 125.94 38.7201C126.65 37.1301 128.31 35.6301 129.34 34.8201C132.27 32.5301 135.98 34.2301 135.98 34.2301C135.98 34.2301 137.31 23.4201 146.43 21.4601C146.41 21.4701 153 19.5801 163.26 19.5801Z" fill="black"/>
<path d="M194.09 91.1505C194.09 91.1505 203.7 98.3204 199.51 106.52C193.16 118.96 193.27 140.94 195.6 148.97C196.68 152.7 211.24 178.5 230.65 201.5C242.89 216.01 241.44 232.71 252.06 249.91C255.94 256.19 273.26 288.46 283.68 311.91C285.28 315.51 287.78 322.36 283.84 327.45C279.26 333.37 266.59 337.48 268.17 340.32C268.69 341.25 276.09 342.04 282.83 342C292.45 341.94 303.79 340.24 303.79 340.24L312.09 337.23L309.68 319.76L286.33 258.61L263.74 220.77L250.14 175.54L253.52 174.47C253.52 174.47 238.93 137.16 240.39 118.49C240.39 118.47 240.4 118.45 240.4 118.44C243.98 104.31 245.32 91.7105 248.14 82.5605C248.92 80.0305 256.57 86.4305 266.03 90.1005C278.09 94.7805 292.51 98.5904 292.49 96.3004C292.48 95.1404 297.35 93.1905 294.07 84.4405C288.63 69.9405 273.91 46.2305 273.91 46.2305C273.91 46.2305 270.31 52.2205 268.7 53.4005C267.49 54.2905 262.6 54.5005 262.6 54.5005C262.6 54.5005 270.07 70.9605 267.6 68.8705C257.12 60.0305 247.32 52.6805 247.32 52.6805C247.32 52.6805 228.78 75.4405 224.71 79.0705C222.83 80.7505 217.15 83.8105 217.15 83.8105" fill="black"/>
<path d="M176.18 15.0397C176.18 15.0397 176.51 13.0197 178.69 11.1597C183.6 6.98973 193.7 0.369717 197.85 0.429717C199.67 0.449717 205.53 0.0497108 208.55 2.07971C210.29 3.24971 212.54 4.72972 213.58 6.33972C214.5 7.75972 215.76 11.1597 216.18 15.4097C216.46 18.2797 216.56 25.0597 216.59 30.1397C216.6 31.9097 217.86 34.4097 219.21 36.0997C220.56 37.7897 222.12 38.9497 221.48 40.2197C220.55 42.0897 216.37 45.4897 212.56 49.3197C209.96 51.9397 209.17 56.8097 207.14 57.2097C205.82 57.4697 206.46 54.6297 205.79 52.0897C205.1 49.4697 203.11 47.1497 202.01 47.1497C197.32 47.1497 195.42 52.1297 192.58 49.7797C190.94 48.4197 189.99 40.8997 188.34 40.5297C187.04 40.2397 185.86 41.2097 185.13 40.4097C184.1 39.2597 185.21 35.1697 185.03 33.3397C184.84 31.4097 183.14 24.6897 183.14 24.6897L180.54 24.4697C180.54 24.4697 176.75 21.9897 176.75 20.7297" fill="black"/>
<path d="M204.37 65.5992C204.37 65.5992 203.92 61.2691 203.84 60.6891C203.65 59.3391 202.71 55.3691 202.71 55.3691L193.83 63.1791L183.84 69.6292L197.72 68.6992C197.72 68.6992 204.38 67.7491 204.38 65.9091" fill="black"/>
<path d="M207.53 65.2707C207.53 65.2707 210.25 64.8407 211.08 64.4607C212.13 63.9807 213.96 62.4307 214.87 61.6907C217.16 59.8307 232.64 46.9207 232.64 46.9207L225.67 40.9707C225.67 40.9707 207.71 60.9407 207.71 65.3007" fill="black"/>
<path d="M163.26 19.5801C165.89 19.5801 171.02 20.7701 172.22 25.5701C172.93 28.4201 172.52 33.4801 171.16 36.5801C170.69 37.6501 172.75 39.4401 174 40.2101C175.47 41.1101 176.91 40.6701 177.34 41.5901C178 43.0001 176.97 43.7001 175.78 44.0301C174.59 44.3701 176.86 49.9101 176.86 49.9101C176.86 49.9101 177.95 53.8801 176.84 54.7701C173.79 57.2401 167.77 55.0701 166.3 60.9601C164.92 66.5201 165.78 76.9701 165.02 76.2901C164.87 76.1601 179.77 74.4401 194.32 74.4401C196.6 74.4401 206.14 76.0201 221.67 62.8901C231 55.0001 242.46 41.8901 250.62 32.5901C250.82 32.3601 251.19 31.4701 250.55 31.0701C249.73 30.5601 247.82 30.5301 247.78 30.0701C247.68 28.7101 250.36 27.6501 249.51 27.1101C248.11 26.2101 247.05 26.5801 247.22 25.9201C247.43 25.1001 248.31 25.0101 249.36 24.5101C249.85 24.2801 249.18 22.8001 249.74 22.5301C259.45 17.9901 265.1 25.0201 265.34 25.2501C265.87 25.7501 266.41 28.3201 266.08 31.9801C265.76 35.5101 266.11 34.6901 267.59 39.3601C268.65 42.7001 270.09 41.8601 269.54 44.8401C268.99 47.8201 264.33 48.9601 262.98 50.1401C262.21 50.8101 260.2 47.7101 257.46 44.2001C254.93 40.9601 255.17 35.6501 254.32 36.8001C248.91 44.1701 241.28 53.6701 233.11 63.9701C227.41 71.1601 221.46 75.7501 221.39 76.0601C220.54 79.7901 191.6 86.1001 171.08 90.0501C170.86 90.0901 171.08 91.5001 171.17 91.9701C171.3 92.6301 173.23 91.3001 175.73 90.7501C178.62 90.1101 183.77 90.9401 184.19 91.0201C186.59 91.5001 190.06 94.0201 191.99 96.9901C193.55 99.4001 193.79 102.25 193.99 103.42C194.11 104.16 193.51 110.55 191.98 111.65C191.48 112.01 187.69 125.75 188.08 136.17C188.53 148.26 192.81 157.77 192.41 157.07C190.7 154.06 207.75 180.22 205.94 179.64C205.67 179.55 218.84 191.1 225.91 208.61C231.33 222.03 238.79 229.22 238.79 247.44C238.79 253.23 227.03 263.17 212.14 273.44C210.81 274.35 209 301.14 209.45 318.27C209.61 324.25 209.14 331.2 210.18 331.4C212.3 331.79 217.89 335.2 219.42 336.02C222.06 337.44 221.48 338.64 221.48 338.64C221.48 338.64 202.18 342.94 200.24 333.76C196.3 315.07 193.89 319.32 193.89 319.32C193.89 319.32 191.11 339.27 191.11 333.66C191.11 329.32 190.08 314.43 189.95 310.43C189.77 304.93 199.51 302.57 199.51 297.32C199.51 287.73 199.54 281.76 199.19 281.98C193.33 285.71 187.37 289.33 181.74 292.67C179.53 293.98 180.42 311.52 176.2 323.65C175.8 324.81 176.51 328.32 176.31 331.54C176.12 334.76 175.03 337.69 175.03 337.69L164.14 337.66C164.14 337.66 160.35 334.26 152.31 338.38C150.7 339.21 150.12 339 148.22 339.07C145.05 339.19 140.41 339.14 137.43 338.92C130.4 338.4 125.05 337.72 125.33 335.23C125.72 331.79 140.71 330.77 147.66 325.47C155.92 319.16 153.87 316.14 155.4 311.22C156.65 307.2 158.31 306.09 157.83 306.35C153.85 308.54 151.47 309.81 151.47 309.81C151.47 309.81 110.66 320.26 87.5896 306.63C81.6096 303.1 76.4596 298.99 71.9696 293.91C71.5496 293.43 60.9196 306.63 54.8696 314.52C53.6996 316.05 54.1996 329.42 45.7596 330.7C39.2896 331.68 40.7796 332.48 36.3096 336.76C29.3296 343.44 21.7996 345.55 18.8396 343.82C18.4896 343.62 15.6196 341.03 22.1696 336.3C28.5796 331.67 32.1696 326.4 34.5896 319.38C35.4796 316.79 23.7596 326.67 26.2096 323.61C28.6096 320.61 34.3596 314.33 38.1196 309.25C40.9796 305.38 46.8196 306.66 48.6196 304.71C58.3296 294.18 64.3096 283.42 63.9396 282.84C58.7896 274.88 56.9296 268.82 57.0396 268.35C57.1496 267.84 33.8196 255.86 35.5996 235.07C41.4196 167.1 0.0996094 184.48 0.0996094 184.48C0.0996094 184.48 5.6196 176.1 19.7796 174.07C28.5396 172.81 43.6896 174.66 53.5996 180.4C112.76 214.71 144.34 169.67 153.64 159.15C159.45 152.58 162.8 147.54 163.59 146.29C167.54 140.04 168.6 132.96 168.09 132.53C167.36 131.92 158.66 124.88 158.33 121.81C158.28 121.35 159.1 120.71 159.62 120.6C161.19 120.26 164.11 121.4 165.03 120.15C165.96 118.89 164.43 115.47 163.27 115.71C162.91 115.78 161.93 116.56 161.39 117.78C160.8 119.11 161.18 121.43 161.18 121.43C161.18 121.43 171.12 128.12 169.21 130.85C168.26 132.21 160.87 137.47 157.44 137C154 136.54 153.39 131.99 153.23 131.65C150.74 126.55 162.94 109.89 162.65 109.95C156.66 111.01 151.09 93.6201 151.09 93.6201C151.09 93.6201 149.94 89.8801 150.62 85.7401C151.16 82.4401 151.48 79.3901 151.48 76.2301C151.48 73.5601 152.94 65.0301 151.41 62.5701C150.27 60.7401 147.07 60.6801 145.68 59.9301C144.34 59.2101 141.17 56.0401 140.9 56.2801C140.2 56.9001 133.09 57.1701 131.98 56.6801C130.73 56.1301 127.19 53.0801 127.03 52.8201C125.31 50.0001 124.98 45.9101 125.08 44.1701C125.14 43.1701 124.99 40.8701 125.94 38.7201C126.65 37.1301 128.31 35.6301 129.34 34.8201C132.27 32.5301 135.98 34.2301 135.98 34.2301C135.98 34.2301 137.31 23.4201 146.43 21.4601C146.41 21.4701 153 19.5801 163.26 19.5801Z" fill="black"/>
<path d="M194.09 91.1505C194.09 91.1505 203.7 98.3204 199.51 106.52C193.16 118.96 193.27 140.94 195.6 148.97C196.68 152.7 211.24 178.5 230.65 201.5C242.89 216.01 241.44 232.71 252.06 249.91C255.94 256.19 273.26 288.46 283.68 311.91C285.28 315.51 287.78 322.36 283.84 327.45C279.26 333.37 266.59 337.48 268.17 340.32C268.69 341.25 276.09 342.04 282.83 342C292.45 341.94 303.79 340.24 303.79 340.24L312.09 337.23L309.68 319.76L286.33 258.61L263.74 220.77L250.14 175.54L253.52 174.47C253.52 174.47 238.93 137.16 240.39 118.49C240.39 118.47 240.4 118.45 240.4 118.44C243.98 104.31 245.32 91.7105 248.14 82.5605C248.92 80.0305 256.57 86.4305 266.03 90.1005C278.09 94.7805 292.51 98.5904 292.49 96.3004C292.48 95.1404 297.35 93.1905 294.07 84.4405C288.63 69.9405 273.91 46.2305 273.91 46.2305C273.91 46.2305 270.31 52.2205 268.7 53.4005C267.49 54.2905 262.6 54.5005 262.6 54.5005C262.6 54.5005 270.07 70.9605 267.6 68.8705C257.12 60.0305 247.32 52.6805 247.32 52.6805C247.32 52.6805 228.78 75.4405 224.71 79.0705C222.83 80.7505 217.15 83.8105 217.15 83.8105" fill="black"/>
<path d="M176.18 15.0397C176.18 15.0397 176.51 13.0197 178.69 11.1597C183.6 6.98973 193.7 0.369717 197.85 0.429717C199.67 0.449717 205.53 0.0497108 208.55 2.07971C210.29 3.24971 212.54 4.72972 213.58 6.33972C214.5 7.75972 215.76 11.1597 216.18 15.4097C216.46 18.2797 216.56 25.0597 216.59 30.1397C216.6 31.9097 217.86 34.4097 219.21 36.0997C220.56 37.7897 222.12 38.9497 221.48 40.2197C220.55 42.0897 216.37 45.4897 212.56 49.3197C209.96 51.9397 209.17 56.8097 207.14 57.2097C205.82 57.4697 206.46 54.6297 205.79 52.0897C205.1 49.4697 203.11 47.1497 202.01 47.1497C197.32 47.1497 195.42 52.1297 192.58 49.7797C190.94 48.4197 189.99 40.8997 188.34 40.5297C187.04 40.2397 185.86 41.2097 185.13 40.4097C184.1 39.2597 185.21 35.1697 185.03 33.3397C184.84 31.4097 183.14 24.6897 183.14 24.6897L180.54 24.4697C180.54 24.4697 176.75 21.9897 176.75 20.7297" fill="black"/>
<path d="M204.37 65.5992C204.37 65.5992 203.92 61.2691 203.84 60.6891C203.65 59.3391 202.71 55.3691 202.71 55.3691L193.83 63.1791L183.84 69.6292L197.72 68.6992C197.72 68.6992 204.38 67.7491 204.38 65.9091" fill="black"/>
<path d="M207.53 65.2707C207.53 65.2707 210.25 64.8407 211.08 64.4607C212.13 63.9807 213.96 62.4307 214.87 61.6907C217.16 59.8307 232.64 46.9207 232.64 46.9207L225.67 40.9707C225.67 40.9707 207.71 60.9407 207.71 65.3007" fill="black"/>
<path d="M163.26 19.5801C165.89 19.5801 171.02 20.7701 172.22 25.5701C172.93 28.4201 172.52 33.4801 171.16 36.5801C170.69 37.6501 172.75 39.4401 174 40.2101C175.47 41.1101 176.91 40.6701 177.34 41.5901C178 43.0001 176.97 43.7001 175.78 44.0301C174.59 44.3701 176.86 49.9101 176.86 49.9101C176.86 49.9101 177.95 53.8801 176.84 54.7701C173.79 57.2401 167.77 55.0701 166.3 60.9601C164.92 66.5201 165.78 76.9701 165.02 76.2901C164.87 76.1601 179.77 74.4401 194.32 74.4401C196.6 74.4401 206.14 76.0201 221.67 62.8901C231 55.0001 242.46 41.8901 250.62 32.5901C250.82 32.3601 251.19 31.4701 250.55 31.0701C249.73 30.5601 247.82 30.5301 247.78 30.0701C247.68 28.7101 250.36 27.6501 249.51 27.1101C248.11 26.2101 247.05 26.5801 247.22 25.9201C247.43 25.1001 248.31 25.0101 249.36 24.5101C249.85 24.2801 249.18 22.8001 249.74 22.5301C259.45 17.9901 265.1 25.0201 265.34 25.2501C265.87 25.7501 266.41 28.3201 266.08 31.9801C265.76 35.5101 266.11 34.6901 267.59 39.3601C268.65 42.7001 270.09 41.8601 269.54 44.8401C268.99 47.8201 264.33 48.9601 262.98 50.1401C262.21 50.8101 260.2 47.7101 257.46 44.2001C254.93 40.9601 255.17 35.6501 254.32 36.8001C248.91 44.1701 241.28 53.6701 233.11 63.9701C227.41 71.1601 221.46 75.7501 221.39 76.0601C220.54 79.7901 191.6 86.1001 171.08 90.0501C170.86 90.0901 171.08 91.5001 171.17 91.9701C171.3 92.6301 173.23 91.3001 175.73 90.7501C178.62 90.1101 183.77 90.9401 184.19 91.0201C186.59 91.5001 190.06 94.0201 191.99 96.9901C193.55 99.4001 193.79 102.25 193.99 103.42C194.11 104.16 193.51 110.55 191.98 111.65C191.48 112.01 187.69 125.75 188.08 136.17C188.53 148.26 192.81 157.77 192.41 157.07C190.7 154.06 207.75 180.22 205.94 179.64C205.67 179.55 218.84 191.1 225.91 208.61C231.33 222.03 238.79 229.22 238.79 247.44C238.79 253.23 227.03 263.17 212.14 273.44C210.81 274.35 209 301.14 209.45 318.27C209.61 324.25 209.14 331.2 210.18 331.4C212.3 331.79 217.89 335.2 219.42 336.02C222.06 337.44 221.48 338.64 221.48 338.64C221.48 338.64 202.18 342.94 200.24 333.76C196.3 315.07 193.89 319.32 193.89 319.32C193.89 319.32 191.11 339.27 191.11 333.66C191.11 329.32 190.08 314.43 189.95 310.43C189.77 304.93 199.51 302.57 199.51 297.32C199.51 287.73 199.54 281.76 199.19 281.98C193.33 285.71 187.37 289.33 181.74 292.67C179.53 293.98 180.42 311.52 176.2 323.65C175.8 324.81 176.51 328.32 176.31 331.54C176.12 334.76 175.03 337.69 175.03 337.69L164.14 337.66C164.14 337.66 160.35 334.26 152.31 338.38C150.7 339.21 150.12 339 148.22 339.07C145.05 339.19 140.41 339.14 137.43 338.92C130.4 338.4 125.05 337.72 125.33 335.23C125.72 331.79 140.71 330.77 147.66 325.47C155.92 319.16 153.87 316.14 155.4 311.22C156.65 307.2 158.31 306.09 157.83 306.35C153.85 308.54 151.47 309.81 151.47 309.81C151.47 309.81 110.66 320.26 87.5896 306.63C81.6096 303.1 76.4596 298.99 71.9696 293.91C71.5496 293.43 60.9196 306.63 54.8696 314.52C53.6996 316.05 54.1996 329.42 45.7596 330.7C39.2896 331.68 40.7796 332.48 36.3096 336.76C29.3296 343.44 21.7996 345.55 18.8396 343.82C18.4896 343.62 15.6196 341.03 22.1696 336.3C28.5796 331.67 32.1696 326.4 34.5896 319.38C35.4796 316.79 23.7596 326.67 26.2096 323.61C28.6096 320.61 34.3596 314.33 38.1196 309.25C40.9796 305.38 46.8196 306.66 48.6196 304.71C58.3296 294.18 64.3096 283.42 63.9396 282.84C58.7896 274.88 56.9296 268.82 57.0396 268.35C57.1496 267.84 33.8196 255.86 35.5996 235.07C41.4196 167.1 0.0996094 184.48 0.0996094 184.48C0.0996094 184.48 5.6196 176.1 19.7796 174.07C28.5396 172.81 43.6896 174.66 53.5996 180.4C112.76 214.71 144.34 169.67 153.64 159.15C159.45 152.58 162.8 147.54 163.59 146.29C167.54 140.04 168.6 132.96 168.09 132.53C167.36 131.92 158.66 124.88 158.33 121.81C158.28 121.35 159.1 120.71 159.62 120.6C161.19 120.26 164.11 121.4 165.03 120.15C165.96 118.89 164.43 115.47 163.27 115.71C162.91 115.78 161.93 116.56 161.39 117.78C160.8 119.11 161.18 121.43 161.18 121.43C161.18 121.43 171.12 128.12 169.21 130.85C168.26 132.21 160.87 137.47 157.44 137C154 136.54 153.39 131.99 153.23 131.65C150.74 126.55 162.94 109.89 162.65 109.95C156.66 111.01 151.09 93.6201 151.09 93.6201C151.09 93.6201 149.94 89.8801 150.62 85.7401C151.16 82.4401 151.48 79.3901 151.48 76.2301C151.48 73.5601 152.94 65.0301 151.41 62.5701C150.27 60.7401 147.07 60.6801 145.68 59.9301C144.34 59.2101 141.17 56.0401 140.9 56.2801C140.2 56.9001 133.09 57.1701 131.98 56.6801C130.73 56.1301 127.19 53.0801 127.03 52.8201C125.31 50.0001 124.98 45.9101 125.08 44.1701C125.14 43.1701 124.99 40.8701 125.94 38.7201C126.65 37.1301 128.31 35.6301 129.34 34.8201C132.27 32.5301 135.98 34.2301 135.98 34.2301C135.98 34.2301 137.31 23.4201 146.43 21.4601C146.41 21.4701 153 19.5801 163.26 19.5801Z" fill="black"/>
<path d="M194.09 91.1505C194.09 91.1505 203.7 98.3204 199.51 106.52C193.16 118.96 193.27 140.94 195.6 148.97C196.68 152.7 211.24 178.5 230.65 201.5C242.89 216.01 241.44 232.71 252.06 249.91C255.94 256.19 273.26 288.46 283.68 311.91C285.28 315.51 287.78 322.36 283.84 327.45C279.26 333.37 266.59 337.48 268.17 340.32C268.69 341.25 276.09 342.04 282.83 342C292.45 341.94 303.79 340.24 303.79 340.24L312.09 337.23L309.68 319.76L286.33 258.61L263.74 220.77L250.14 175.54L253.52 174.47C253.52 174.47 238.93 137.16 240.39 118.49C240.39 118.47 240.4 118.45 240.4 118.44C243.98 104.31 245.32 91.7105 248.14 82.5605C248.92 80.0305 256.57 86.4305 266.03 90.1005C278.09 94.7805 292.51 98.5904 292.49 96.3004C292.48 95.1404 297.35 93.1905 294.07 84.4405C288.63 69.9405 273.91 46.2305 273.91 46.2305C273.91 46.2305 270.31 52.2205 268.7 53.4005C267.49 54.2905 262.6 54.5005 262.6 54.5005C262.6 54.5005 270.07 70.9605 267.6 68.8705C257.12 60.0305 247.32 52.6805 247.32 52.6805C247.32 52.6805 228.78 75.4405 224.71 79.0705C222.83 80.7505 217.15 83.8105 217.15 83.8105" fill="black"/>
<path d="M472.55 53.1302C472.55 43.9202 451.23 35.0002 441.01 35.2802C425.53 35.8402 417.07 42.8102 417.07 57.8802C417.07 73.2202 420.87 84.6602 431.09 96.6602C438.68 95.5402 459.12 95.5403 459.12 106.42C459.12 110.88 453.57 114.23 449.19 114.23C438.97 114.23 428.17 106.98 421.16 100.56C367.73 107.81 337.65 180.62 337.65 219.4C337.65 236.7 344.07 255.94 365.68 255.94C393.13 255.94 426.71 225.81 432.84 225.81C433.13 225.81 433.72 226.09 433.72 226.37C433.72 237.81 379.7 260.12 363.06 259.29C335.32 257.9 316.63 229.44 316.34 205.45C315.76 150.77 361.89 102.23 417.95 97.2102C414.45 93.3002 400.43 80.4702 400.43 62.0602C400.43 40.8602 422.62 32.4902 441.31 32.4902C456.2 32.4902 468.76 41.1403 476.35 48.6703C478.39 50.6203 485.11 33.8802 493.58 33.8802C496.79 33.8802 500 34.7202 500 38.0602C500 46.9902 469.05 82.1403 464.38 82.1403C461.75 82.1403 461.17 78.5102 461.17 76.5602C461.17 71.2702 472.55 58.4402 472.55 53.1302ZM439.85 99.1602C437.81 99.1602 432.55 98.8802 432.55 98.8802C435.76 102.79 440.43 110.04 449.49 110.04C451.83 110.04 454.45 109.2 454.45 106.69C454.45 100 444.82 99.1602 439.85 99.1602Z" fill="#D899A2"/>
<path d="M470.5 237.531C459.11 237.531 455.61 226.931 455.61 217.721C455.61 174.761 541.75 14.6406 589.93 14.6406C596.35 14.6406 598.11 20.2206 598.11 25.2406C598.11 66.2506 525.7 131.241 491.82 154.401C485.98 160.821 462.62 211.031 462.62 224.701C462.62 229.161 463.2 235.581 469.34 235.581C487.15 235.861 520.15 206.011 531.83 193.181C533.58 191.231 535.04 190.391 535.63 190.391C535.92 190.391 536.21 190.951 536.21 191.231C536.21 191.791 535.33 192.621 531.83 196.531C520.43 208.801 489.48 237.531 470.5 237.531ZM595.77 24.4006C595.77 22.4506 595.19 18.5406 592.27 18.8206C571.83 19.9406 507.88 124.271 493.87 149.651C522.48 129.851 595.77 61.5006 595.77 24.4006Z" fill="#D899A2"/>
<path d="M594.891 241.99C585.841 241.99 579.711 232.5 579.711 224.69C579.711 216.88 584.971 209.07 584.971 202.09C584.971 201.81 584.971 200.69 584.391 200.69C582.051 200.69 540.591 237.79 525.701 237.79C518.111 237.79 516.061 232.49 516.061 226.07C516.061 187.29 577.961 150.75 615.051 150.75C620.311 150.75 633.151 150.75 633.151 158C633.151 160.79 631.401 163.58 628.481 163.58C624.981 163.58 621.761 158 619.431 156.05C614.171 151.03 600.451 153.26 593.441 156.61C575.041 165.26 527.161 212.68 527.161 231.65C527.161 233.05 527.741 234.16 529.501 234.16C545.271 234.16 590.231 184.78 600.161 184.23C604.251 183.95 605.711 187.86 605.711 191.2C605.711 204.59 591.691 218.82 591.691 232.21C591.691 235.28 593.441 238.9 596.951 238.9C606.001 239.18 641.331 207.1 655.061 193.15C657.101 191.2 658.271 190.36 658.861 190.36C659.151 190.36 659.441 190.92 659.441 191.2C659.441 191.76 658.561 192.59 655.061 196.5C640.731 212.42 606.861 241.99 594.891 241.99Z" fill="#D899A2"/>
<path d="M373.09 329.909C364.69 329.909 360.88 322.8 360.88 312.32C360.88 302.7 363.98 294.33 372.91 294.33C374.16 294.33 375.47 294.5 376.6 294.9V281.52H381.31V327.68C379.17 329.17 376.31 329.909 373.09 329.909ZM376.61 298.09C375.72 297.8 374.58 297.63 373.57 297.63C367.14 297.63 365.71 304.57 365.71 312.03C365.71 320.34 367.79 326.32 373.1 326.32C374.35 326.32 375.6 326.15 376.61 325.64V298.09Z" fill="black"/>
<path d="M398.47 329.909C391.8 329.909 387.93 325.409 387.93 319.149C387.93 311.119 394.01 307.139 402.64 306.059V303.839C402.64 299.569 400.73 297.689 397.04 297.689C394.84 297.689 392.45 298.369 390.43 299.449L389.24 296.259C391.74 294.779 394.54 294.039 397.64 294.039C404.13 294.039 407.23 297.459 407.23 303.769V327.619C404.9 329.109 401.63 329.909 398.47 329.909ZM402.64 309.129C396.21 310.099 392.51 312.939 392.51 318.979C392.51 323.079 394.42 326.489 398.65 326.489C400.02 326.489 401.63 326.149 402.64 325.579V309.129Z" fill="black"/>
<path d="M430.1 329.339V303.269C430.1 299.739 428.43 297.409 424.44 297.409C422.83 297.409 421.28 297.699 419.91 298.319V329.339H415.2V296.329C417.94 294.849 421.22 294.049 424.67 294.049C431.52 294.049 434.8 297.629 434.8 303.269V329.339H430.1Z" fill="black"/>
<path d="M452.57 329.909C444.65 329.909 441.729 321.769 441.729 311.979C441.729 302.189 444.65 294.049 452.57 294.049C455.13 294.049 457.4 294.849 458.94 296.269L457.63 299.289C456.5 298.319 455.069 297.699 453.219 297.699C448.099 297.699 446.549 304.299 446.549 311.869C446.549 319.439 448.159 326.039 453.219 326.039C455.129 326.039 456.5 325.409 457.63 324.449L458.94 327.689C457.39 329.109 455.13 329.909 452.57 329.909Z" fill="black"/>
<path d="M484.44 312.659L467.88 314.589C468 320.509 470.2 326.089 475.8 326.089C478.24 326.089 480.51 325.459 482.47 324.269L483.72 327.629C481.46 329.109 478.48 329.909 475.56 329.909C466.68 329.909 463.17 322.279 463.17 312.609C463.17 300.769 466.92 294.059 474.25 294.059C481.58 294.059 484.56 301.229 484.56 310.449C484.56 311.119 484.5 311.919 484.44 312.659ZM474.07 297.409C469.66 297.409 467.82 303.039 467.82 311.069V311.469L479.79 310.049C479.79 303.159 478.6 297.409 474.07 297.409Z" fill="black"/>
<path d="M511.49 329.909C508.87 329.909 506.37 329.169 504.34 327.689L505.65 324.389C507.14 325.469 509.28 326.039 511.13 326.039C513.93 326.039 516.19 323.929 516.19 320.919C516.19 312.669 504.81 313.119 504.81 302.819C504.81 297.749 508.21 294.059 513.75 294.059C516.37 294.059 518.69 294.799 520.48 296.279L519.11 299.349C517.8 298.329 516.07 297.699 514.23 297.699C511.25 297.699 509.4 299.859 509.4 302.819C509.4 310.499 520.96 310.219 520.96 320.919C520.96 326.319 516.67 329.909 511.49 329.909Z" fill="black"/>
<path d="M535.91 329.56C531.38 329.56 529.12 326.54 529.12 322.1V297.8H525.66V294.61H529.12V286.64L533.83 284.93V294.6H538.66V297.79H533.83V322.15C533.83 324.54 535.02 325.96 537.17 325.96C537.65 325.96 538.18 325.9 538.66 325.73V329.09C538 329.39 536.98 329.56 535.91 329.56Z" fill="black"/>
<path d="M555.51 329.909C549.08 329.909 545.38 326.779 545.38 320.629V294.619H550.09V320.629C550.09 324.159 551.88 326.319 555.57 326.319C557.24 326.319 558.91 326.089 560.28 325.349V294.619H564.99V327.629C562.42 329.109 559.14 329.909 555.51 329.909Z" fill="black"/>
<path d="M584.11 329.909C575.71 329.909 571.9 322.8 571.9 312.32C571.9 302.7 575 294.33 583.93 294.33C585.18 294.33 586.49 294.5 587.62 294.9V281.52H592.33V327.68C590.18 329.17 587.32 329.909 584.11 329.909ZM587.62 298.09C586.73 297.8 585.59 297.63 584.58 297.63C578.15 297.63 576.72 304.57 576.72 312.03C576.72 320.34 578.8 326.32 584.11 326.32C585.36 326.32 586.61 326.15 587.62 325.64V298.09Z" fill="black"/>
<path d="M602.93 286.37C601.38 286.37 600.13 285.17 600.13 283.69C600.13 282.21 601.38 281.02 602.93 281.02C604.48 281.02 605.73 282.22 605.73 283.69C605.73 285.17 604.48 286.37 602.93 286.37ZM600.55 329.34V294.62H605.32V329.34H600.55Z" fill="black"/>
<path d="M623.13 329.909C615.33 329.909 612.41 322.449 612.41 311.979C612.41 301.509 615.33 294.049 623.13 294.049C630.93 294.049 633.85 301.509 633.85 311.979C633.85 322.449 630.93 329.909 623.13 329.909ZM623.13 297.409C618.54 297.409 617.23 303.729 617.23 311.869C617.23 320.009 618.54 326.329 623.13 326.329C627.72 326.329 629.03 320.009 629.03 311.869C629.03 303.719 627.72 297.409 623.13 297.409Z" fill="black"/>
</g>
<defs>
<clipPath id="clip0_2710_2">
<rect width="659" height="344" fill="white"/>
</clipPath>
</defs>
</svg>
