<svg width="104" height="31" viewBox="0 0 104 31" fill="none" xmlns="http://www.w3.org/2000/svg">
<path d="M0.999901 15.4714C0.999901 15.4714 15.0354 19.8302 26.194 16.0816C37.4399 12.2459 38.7475 4.31272 39.4449 1.95898C40.1423 -0.394827 37.8757 3.78966 36.1322 4.22558C34.3887 4.6615 30.64 8.32293 32.7323 11.4613C34.8246 14.6869 33.1682 15.1227 28.635 16.0816C24.1018 17.0405 30.9887 14.8612 37.2655 16.6919C43.5422 18.4354 48.4241 22.0969 50.9523 25.9327C53.4804 29.7684 53.1317 30.03 53.1317 30.03C53.1317 30.03 52.9574 29.4197 50.1677 28.3736C47.378 27.3275 46.7678 26.8916 46.2447 23.6661C45.7217 20.4405 46.9421 20.179 43.7166 18.3483C40.491 16.5176 45.0242 18.9586 52.6087 19.3072C65.6852 19.8303 71.7876 3.09232 71.7876 3.09232C71.7876 3.09232 69.2594 4.48715 66.3826 4.83585C63.5058 5.18456 62.8084 15.9073 68.2133 13.3792C73.6183 10.851 71.6132 10.5895 72.0491 6.66653C72.485 2.74354 72.7465 1 72.7465 1C72.7465 1 71.5261 3.70245 68.6492 6.23062C65.7723 8.84592 64.4647 8.75878 65.4236 11.2869C66.3825 13.9022 63.5929 16.6046 60.7161 17.9995C57.8392 19.3944 67.5159 15.9073 72.5721 16.1688C77.5412 16.4303 79.9822 17.5637 80.5052 19.8303C81.0283 22.0969 76.1464 22.0097 75.0131 24.0148C73.8797 26.0198 75.3618 22.1841 77.7156 21.0507C80.1565 19.9175 81.2027 18.9585 79.7207 16.8663C78.2387 14.774 78.0643 14.251 78.0643 12.5074C77.9771 10.7639 75.5361 8.9332 74.8387 8.41007C74.1413 7.88701 77.7156 9.02035 78.8488 11.4612C80.0693 13.9894 80.8539 14.4252 80.8539 16.3431C80.8539 18.261 80.3309 14.5125 81.5514 13.4663C82.7718 12.4202 83.0333 9.45619 82.5975 7.71265C82.1616 5.88197 83.2949 7.97415 83.3821 9.8049C83.4693 11.6356 83.2949 12.5946 82.2488 13.9894C81.2027 15.3842 81.0283 18.1739 81.7257 19.8303C82.4231 21.3995 79.7206 22.7071 79.895 24.7122C79.9822 26.6301 80.2437 26.7172 81.2027 27.589C82.1616 28.4607 80.0693 26.4557 80.7667 25.148C81.4641 23.8404 82.5974 22.3584 82.3359 20.1789C82.0744 17.9994 82.5974 12.4201 85.5615 10.9382C88.4384 9.54334 90.3563 9.89204 92.2741 10.6767C94.2793 11.3741 96.8073 10.6767 99.597 9.89204C102.387 9.10742 100.556 10.6767 98.0278 12.8561C95.5869 15.0354 92.4485 16.6046 92.71 21.1379C92.9716 25.6711 88.1768 27.4146 84.7769 25.2352C81.2899 23.0559 83.0334 23.4917 83.0334 23.4917C83.0334 23.4917 86.9564 26.5429 89.3973 24.7993C91.8383 22.9686 92.187 12.4202 97.8535 11.7228C103.52 11.0254 101.951 11.3741 101.776 13.6407C101.602 15.9073 102.474 15.5586 102.823 17.9124C103.171 20.2662 102.735 20.6148 102.038 21.8353C101.341 23.0558 103.084 23.1429 101.951 25.148C100.73 27.1531 100.905 29.3325 97.7663 28.7222C94.628 28.1992 92.2741 29.1582 90.2691 29.4197C88.264 29.7684 84.9513 29.1582 83.4693 26.7172C81.9874 24.2763 82.336 24.1019 82.336 24.1019C82.336 24.1019 84.8642 26.9787 88.0025 26.8916C91.1409 26.8044 93.7562 24.8865 93.7562 22.4456C93.7562 20.0918 95.4997 16.3432 96.8074 15.4714C98.115 14.5997 96.5458 15.0356 96.8946 17.4765C97.3305 19.9174 96.1099 20.702 96.633 22.3584C97.2432 24.0148 94.8895 27.3275 93.1459 27.7633C91.4024 28.1993 94.7151 26.3685 96.3714 26.2813C98.0277 26.2813 100.207 25.8454 100.643 24.6249C101.079 23.4044 99.3355 24.8864 98.4637 23.666C97.6791 22.4455 97.5919 18.6969 98.0277 18.0867C98.4637 17.4764 98.5508 16.8662 98.0277 15.6457C97.5047 14.4252 98.9867 11.374 100.294 12.7689C101.602 14.1637 100.556 15.2971 100.556 15.2971C100.556 15.2971 100.643 13.5535 101.602 16.1688C102.561 18.7841 101.341 17.6509 101.428 20.0047C101.515 22.3585 100.643 23.9276 99.5098 22.7071C98.3765 21.4867 101.864 19.8303 100.817 17.9124C99.7713 15.9945 99.9456 16.1688 99.6841 16.6047C99.3354 17.0406 98.4636 18.9585 99.5097 19.7431" stroke="#111010" stroke-width="0.5" stroke-miterlimit="18.1406" stroke-linejoin="round"/>
</svg>
